<?xml version="1.0" standalone="no"?><!DOCTYPE svg PUBLIC "-//W3C//DTD SVG 1.1//EN" "http://www.w3.org/Graphics/SVG/1.1/DTD/svg11.dtd"><svg version="1.1" width="1300" height="320" viewBox="0 0 1300 320" xmlns="http://www.w3.org/2000/svg" xmlns:xlink="http://www.w3.org/1999/xlink">
        <style type="text/css">
            svg { background-color: white; }
            rect { stroke: black; stroke-opacity: 0.15; }
            rect.meta { fill: #f7fbfc; }
            rect.fade { fill: white; opacity: 0.7; stroke-opacity: 0; }
            text {
                text-anchor: middle;
                dominant-baseline: middle;
                font-family: monospace;
                font-size: 20px;
                opacity: 0.8;
            }
            text.large {
                font-size: 38.0px;
            }
        </style>
        <style type="text/css">rect.lat { fill: #75a6ef; }rect.lng { fill: #ef7575; }</style><text y="32" class="large" x="320">39.74279</text><rect y="64" class="lat" height="32" width="20" x="620" /><text y="80.0" class="lat" x="630.0">0</text><rect y="64" class="lat" height="32" width="20" x="600" /><text y="80.0" class="lat" x="610.0">0</text><rect y="64" class="lat" height="32" width="20" x="580" /><text y="80.0" class="lat" x="590.0">1</text><rect y="64" class="lat" height="32" width="20" x="560" /><text y="80.0" class="lat" x="570.0">0</text><rect y="64" class="lat" height="32" width="20" x="540" /><text y="80.0" class="lat" x="550.0">0</text><rect y="64" class="lat" height="32" width="20" x="520" /><text y="80.0" class="lat" x="530.0">1</text><rect y="64" class="lat" height="32" width="20" x="500" /><text y="80.0" class="lat" x="510.0">1</text><rect y="64" class="lat" height="32" width="20" x="480" /><text y="80.0" class="lat" x="490.0">1</text><rect y="64" class="lat" height="32" width="20" x="460" /><text y="80.0" class="lat" x="470.0">1</text><rect y="64" class="lat" height="32" width="20" x="440" /><text y="80.0" class="lat" x="450.0">1</text><rect y="64" class="lat" height="32" width="20" x="420" /><text y="80.0" class="lat" x="430.0">0</text><rect y="64" class="lat" height="32" width="20" x="400" /><text y="80.0" class="lat" x="410.0">0</text><rect y="64" class="lat" height="32" width="20" x="380" /><text y="80.0" class="lat" x="390.0">0</text><rect y="64" class="lat" height="32" width="20" x="360" /><text y="80.0" class="lat" x="370.0">1</text><rect y="64" class="lat" height="32" width="20" x="340" /><text y="80.0" class="lat" x="350.0">0</text><rect y="64" class="lat" height="32" width="20" x="320" /><text y="80.0" class="lat" x="330.0">0</text><rect y="64" class="lat" height="32" width="20" x="300" /><text y="80.0" class="lat" x="310.0">0</text><rect y="64" class="lat" height="32" width="20" x="280" /><text y="80.0" class="lat" x="290.0">1</text><rect y="64" class="lat" height="32" width="20" x="260" /><text y="80.0" class="lat" x="270.0">1</text><rect y="64" class="lat" height="32" width="20" x="240" /><text y="80.0" class="lat" x="250.0">1</text><rect y="64" class="lat" height="32" width="20" x="220" /><text y="80.0" class="lat" x="230.0">0</text><rect y="64" class="lat" height="32" width="20" x="200" /><text y="80.0" class="lat" x="210.0">0</text><rect y="64" class="lat" height="32" width="20" x="180" /><text y="80.0" class="lat" x="190.0">1</text><rect y="64" class="lat" height="32" width="20" x="160" /><text y="80.0" class="lat" x="170.0">1</text><rect y="64" class="lat" height="32" width="20" x="140" /><text y="80.0" class="lat" x="150.0">1</text><rect y="64" class="lat" height="32" width="20" x="120" /><text y="80.0" class="lat" x="130.0">1</text><rect y="64" class="lat" height="32" width="20" x="100" /><text y="80.0" class="lat" x="110.0">1</text><rect y="64" class="lat" height="32" width="20" x="80" /><text y="80.0" class="lat" x="90.0">0</text><rect y="64" class="lat" height="32" width="20" x="60" /><text y="80.0" class="lat" x="70.0">0</text><rect y="64" class="lat" height="32" width="20" x="40" /><text y="80.0" class="lat" x="50.0">1</text><rect y="64" class="lat" height="32" width="20" x="20" /><text y="80.0" class="lat" x="30.0">0</text><rect y="64" class="lat" height="32" width="20" x="0" /><text y="80.0" class="lat" x="10.0">1</text><rect y="96" class="meta" height="32" width="80" x="560" /><text y="112.0" class="meta" x="600.0">4</text><rect y="96" class="meta" height="32" width="80" x="480" /><text y="112.0" class="meta" x="520.0">e</text><rect y="96" class="meta" height="32" width="80" x="400" /><text y="112.0" class="meta" x="440.0">3</text><rect y="96" class="meta" height="32" width="80" x="320" /><text y="112.0" class="meta" x="360.0">2</text><rect y="96" class="meta" height="32" width="80" x="240" /><text y="112.0" class="meta" x="280.0">e</text><rect y="96" class="meta" height="32" width="80" x="160" /><text y="112.0" class="meta" x="200.0">c</text><rect y="96" class="meta" height="32" width="80" x="80" /><text y="112.0" class="meta" x="120.0">7</text><rect y="96" class="meta" height="32" width="80" x="0" /><text y="112.0" class="meta" x="40.0">a</text><text y="32" class="large" x="980">-104.99706</text><rect y="64" class="lng" height="32" width="20" x="1280" /><text y="80.0" class="lng" x="1290.0">1</text><rect y="64" class="lng" height="32" width="20" x="1260" /><text y="80.0" class="lng" x="1270.0">0</text><rect y="64" class="lng" height="32" width="20" x="1240" /><text y="80.0" class="lng" x="1250.0">0</text><rect y="64" class="lng" height="32" width="20" x="1220" /><text y="80.0" class="lng" x="1230.0">0</text><rect y="64" class="lng" height="32" width="20" x="1200" /><text y="80.0" class="lng" x="1210.0">1</text><rect y="64" class="lng" height="32" width="20" x="1180" /><text y="80.0" class="lng" x="1190.0">0</text><rect y="64" class="lng" height="32" width="20" x="1160" /><text y="80.0" class="lng" x="1170.0">0</text><rect y="64" class="lng" height="32" width="20" x="1140" /><text y="80.0" class="lng" x="1150.0">1</text><rect y="64" class="lng" height="32" width="20" x="1120" /><text y="80.0" class="lng" x="1130.0">1</text><rect y="64" class="lng" height="32" width="20" x="1100" /><text y="80.0" class="lng" x="1110.0">1</text><rect y="64" class="lng" height="32" width="20" x="1080" /><text y="80.0" class="lng" x="1090.0">0</text><rect y="64" class="lng" height="32" width="20" x="1060" /><text y="80.0" class="lng" x="1070.0">0</text><rect y="64" class="lng" height="32" width="20" x="1040" /><text y="80.0" class="lng" x="1050.0">0</text><rect y="64" class="lng" height="32" width="20" x="1020" /><text y="80.0" class="lng" x="1030.0">0</text><rect y="64" class="lng" height="32" width="20" x="1000" /><text y="80.0" class="lng" x="1010.0">1</text><rect y="64" class="lng" height="32" width="20" x="980" /><text y="80.0" class="lng" x="990.0">0</text><rect y="64" class="lng" height="32" width="20" x="960" /><text y="80.0" class="lng" x="970.0">0</text><rect y="64" class="lng" height="32" width="20" x="940" /><text y="80.0" class="lng" x="950.0">0</text><rect y="64" class="lng" height="32" width="20" x="920" /><text y="80.0" class="lng" x="930.0">0</text><rect y="64" class="lng" height="32" width="20" x="900" /><text y="80.0" class="lng" x="910.0">0</text><rect y="64" class="lng" height="32" width="20" x="880" /><text y="80.0" class="lng" x="890.0">1</text><rect y="64" class="lng" height="32" width="20" x="860" /><text y="80.0" class="lng" x="870.0">0</text><rect y="64" class="lng" height="32" width="20" x="840" /><text y="80.0" class="lng" x="850.0">1</text><rect y="64" class="lng" height="32" width="20" x="820" /><text y="80.0" class="lng" x="830.0">1</text><rect y="64" class="lng" height="32" width="20" x="800" /><text y="80.0" class="lng" x="810.0">1</text><rect y="64" class="lng" height="32" width="20" x="780" /><text y="80.0" class="lng" x="790.0">0</text><rect y="64" class="lng" height="32" width="20" x="760" /><text y="80.0" class="lng" x="770.0">1</text><rect y="64" class="lng" height="32" width="20" x="740" /><text y="80.0" class="lng" x="750.0">1</text><rect y="64" class="lng" height="32" width="20" x="720" /><text y="80.0" class="lng" x="730.0">1</text><rect y="64" class="lng" height="32" width="20" x="700" /><text y="80.0" class="lng" x="710.0">1</text><rect y="64" class="lng" height="32" width="20" x="680" /><text y="80.0" class="lng" x="690.0">0</text><rect y="64" class="lng" height="32" width="20" x="660" /><text y="80.0" class="lng" x="670.0">1</text><rect y="96" class="meta" height="32" width="80" x="1220" /><text y="112.0" class="meta" x="1260.0">1</text><rect y="96" class="meta" height="32" width="80" x="1140" /><text y="112.0" class="meta" x="1180.0">9</text><rect y="96" class="meta" height="32" width="80" x="1060" /><text y="112.0" class="meta" x="1100.0">3</text><rect y="96" class="meta" height="32" width="80" x="980" /><text y="112.0" class="meta" x="1020.0">4</text><rect y="96" class="meta" height="32" width="80" x="900" /><text y="112.0" class="meta" x="940.0">0</text><rect y="96" class="meta" height="32" width="80" x="820" /><text y="112.0" class="meta" x="860.0">d</text><rect y="96" class="meta" height="32" width="80" x="740" /><text y="112.0" class="meta" x="780.0">d</text><rect y="96" class="meta" height="32" width="80" x="660" /><text y="112.0" class="meta" x="700.0">b</text></svg>