<svg width="397.8" height="535.6" xmlns="http://www.w3.org/2000/svg" xmlns:svg="http://www.w3.org/2000/svg">
 <g>
  <title>Layer 1</title>
  <g stroke="null" id="svg_1">
   <path stroke="#040000" id="svg_2" d="m250.4974,26c22.12677,1.7 73.438,28.8 48.25926,95.3c-8.77441,23.3 -100.90572,10.4 -102.05021,-54.7c-0.47687,-27.1 34.33465,-42.1 53.79095,-40.6z" stroke-miterlimit="10" stroke-width="8.917" fill="none"/>
   <path stroke="#040000" id="svg_3" d="m121.17022,268.7c10.77726,0.5 18.97943,23.6 16.30896,34.6c-1.43061,6 -12.494,5 -10.87264,9.7c2.5751,7.7 -16.78583,13.1 -20.50542,4.8c-18.59794,-41.2 5.1502,-49.5 15.0691,-49.1z" stroke-miterlimit="10" stroke-width="8.917" fill="none"/>
   <path stroke="#040000" id="svg_4" d="m324.31689,472.1c10.30039,1.3 13.82923,12.9 10.58652,17.6c-4.86408,7.1 -38.05424,6.5 -43.96743,-0.7c20.98229,-8.9 32.80867,-16.4 32.80867,-16.4c0.19075,-0.2 0.3815,-0.4 0.57224,-0.5z" stroke-miterlimit="10" stroke-linejoin="round" stroke-linecap="round" stroke-width="8.917" fill="none"/>
   <path stroke="#040000" id="svg_5" d="m122.02858,518.6c-19.17018,-4 -64.75896,4 -88.88859,-61.9c-0.66762,-1.8 -1.23986,-3.6 -1.81211,-5.3c-8.58366,0.3 -19.4563,-3 -22.31752,-8c-3.91034,-6.9 8.01142,-11.9 16.8812,-13.4c-9.72815,-51.5 3.62421,-102.7 19.93317,-140.6c21.55453,-50.2 20.50542,-107 18.97943,-116.5c-6.48543,-40.5 -1.52598,-70.9 9.63278,-93.7c-10.87264,-9.7 -34.04853,-34.5 -8.29754,-48.4c10.39577,-5.6 24.225,0 42.82294,5c1.04911,0.3 0.95374,0.9 1.43061,1.8c38.81723,-27.4 86.98111,-27.6 86.98111,-27.6s79.73269,-8.6 118.07304,56.5l-1.33524,-5.3c0,0 43.6813,-8 54.45857,40.7c7.82067,35.2 -7.43917,44.3 -17.73957,46.6c3.62421,23.1 4.57795,50.1 1.71673,81.6c-6.10394,68.6 40.15247,181.9 -27.56309,242c-11.73101,10.4 -75.6316,37.1 -142.39342,45.2" stroke-miterlimit="10" stroke-linejoin="round" stroke-linecap="round" stroke-width="8.917" fill="none"/>
   <path stroke="#040000" id="svg_6" d="m136.71618,501.5c26.03711,-5.2 47.0194,7.7 44.73042,20c-2.00285,10.7 -39.58022,8.1 -54.64932,6c-6.67618,-1 3.33809,-24.7 9.9189,-26z" stroke-miterlimit="10" stroke-width="8.917" fill="none"/>
   <path stroke="#03324B" id="svg_7" d="m318.7852,128.2" stroke-miterlimit="10" stroke-width="10.2888" fill="none"/>
   <path stroke="#03324B" id="svg_8" d="m307.62644,162.8c0.28612,-1.1 0.66762,-2.1 1.04911,-2.6c2.86122,-3.6 17.83494,2.5 19.93317,3.5c0.85837,0.4 1.43061,1.9 1.71673,4" stroke-miterlimit="10" stroke-width="5.4874" fill="none"/>
   <path stroke="null" id="svg_9" d="m85.11883,37.4c18.31181,4.3 19.17018,14 14.40148,16.7c-2.76585,1.6 -0.76299,-8.3 -13.25699,-3.9c-5.05482,1.7 2.38435,14.6 -11.82638,0.2c-7.53455,-7.7 6.67618,-13.9 10.68189,-13z" fill="#040000"/>
   <path stroke="#040000" id="svg_10" d="m249.16216,25.9c22.4129,1.7 74.29637,29.1 48.8315,96.4c-8.86978,23.5 -102.05021,10.5 -103.1947,-55.3c-0.47687,-27.4 34.71615,-42.7 54.3632,-41.1z" stroke-miterlimit="10" stroke-width="8.231" fill="none"/>
   <path stroke="#040000" id="svg_11" d="m307.05419,123c2.09823,-0.4 4.19646,-0.7 6.10394,-0.9c0.57224,0 1.14449,0.5 1.04911,1.1c-0.09537,0.4 0,0.8 0.19075,1.2c3.14734,6.4 16.78583,22.9 24.12963,21.3c0.28612,-0.1 0.57224,-0.2 0.76299,-0.4c1.90748,-1.1 4.29183,0.1 4.48258,2.3c0.76299,8.1 -1.81211,15.7 -6.77156,18.5c-1.71673,1 -4.00571,1.5 -6.67618,1.6c-0.28612,-2.1 -0.85837,-3.6 -1.71673,-4c-2.1936,-1 -17.07195,-7.2 -19.93317,-3.5c-0.47687,0.6 -0.76299,1.5 -1.04911,2.6c-6.19931,-2.8 -11.34951,-6.5 -13.06624,-10.4c-4.67333,-10.2 -7.3438,-25.4 12.494,-29.4z" stroke-miterlimit="10" stroke-width="8.231" fill="none"/>
   <path stroke="#040000" id="svg_12" d="m330.32546,167.8c0.85837,5.8 -0.47687,16 -4.95945,17.9c-16.78583,7.5 -19.8378,-14.4 -17.83494,-22.9" stroke-miterlimit="10" stroke-width="8.231" fill="none"/>
   <path stroke="null" id="svg_13" d="m353.69209,84.2c3.43346,-0.1 6.67618,4.5 9.06053,10.6c-0.85837,-1.6 -1.90748,-2.9 -2.86122,-2.5c-1.90748,0.7 -0.95374,6.8 0.28612,8.5c1.71673,2.5 4.48258,3.1 4.67333,0.5c1.90748,7.1 2.67047,14.7 1.62136,18.9c-0.85837,3.6 -9.72815,6.4 -13.63849,-3.7c-2.76585,-7.5 -9.34665,-32 0.85837,-32.3z" fill="#040000"/>
   <path stroke="null" id="svg_14" d="m274.53165,49c20.88691,2 25.94174,33 18.21644,40.2c-4.38721,4.1 -19.64705,8.8 -27.84922,-19.4c-2.5751,-9 1.90748,-21.6 9.63278,-20.8zm9.82352,17.6c2.00285,1.6 4.57795,-0.1 5.1502,-1.3c1.62136,-3.4 -4.00571,-11.4 -6.9623,-10.6c-5.91319,1.8 -0.3815,10 1.81211,11.9z" fill="#040000"/>
   <path stroke="null" id="svg_15" d="m334.04504,117.3c14.97372,5.4 14.21073,31.9 6.10394,32.7c-9.15591,0.9 -25.17874,-18.5 -28.9937,-26.2c-2.95659,-5.9 16.8812,-8.6 22.88977,-6.5z" fill="#040000"/>
  </g>
 </g>
</svg>