<svg width="397.8" height="535.6" xmlns="http://www.w3.org/2000/svg" xmlns:svg="http://www.w3.org/2000/svg">
 <g>
  <title>Layer 1</title>
  <g stroke="null" id="svg_1">
   <path stroke="null" id="svg_2" d="m315.335323,65c0,0 44.090201,-8 54.893761,40.2c11.387535,50.6 -26.278928,46.7 -26.278928,46.7l-28.614833,-86.9z" fill="#E0DEDC"/>
   <g stroke="null" id="svg_3">
    <path stroke="#040000" id="svg_4" d="m358.744218,87.2c8.272996,-0.3 15.086051,25.8 12.750147,35.2c-0.875964,3.5 -9.732936,6.3 -13.626111,-3.7c-2.822552,-7.3 -9.440948,-31.2 0.875964,-31.5z" stroke-miterlimit="10" stroke-width="1.3483" fill="#040000"/>
    <path stroke="null" id="svg_5" d="m364.875968,95c1.849258,-0.6 3.893175,4.5 4.57448,6.3c1.751929,5.3 -2.043917,5.1 -4.282492,2c-1.167952,-1.6 -2.141246,-7.6 -0.291988,-8.3z" fill="#FFFFFF"/>
   </g>
   <path stroke="null" id="svg_6" d="m336.942441,488.8c-5.061127,7.3 -40.489015,6.4 -44.868836,-1.3c-4.087833,-7.1 20.828484,-14.9 29.880114,-16.1c13.72344,-1.8 18.589908,12.1 14.988722,17.4z" fill="#B8937F"/>
   <path stroke="null" id="svg_7" d="m40.379872,447c-5.061127,7.3 -28.614833,3.7 -33.091983,-4c-4.087833,-7.1 9.051631,-12.2 18.103262,-13.4c13.72344,-1.8 18.589908,12.1 14.988722,17.4z" fill="#B8937F"/>
   <path stroke="null" id="svg_8" d="m197.469464,14.4c0,0 177.23677,-8.9 156.700274,217.6c-6.13175,68 42.630261,182.8 -28.420174,239.8c0,0 -99.37328,61.7 -232.519848,41.5c-19.465873,-3 -44.28486,-10 -61.512157,-57.1c-21.704448,-59.5 -6.423738,-121.5 12.847476,-165.5c21.704448,-49.7 20.633825,-105.8 19.076555,-115.3c-26.473587,-160.2 133.827874,-161 133.827874,-161z" fill="#8CC5E7"/>
   <path stroke="null" id="svg_9" d="m107.245145,39.8c-18.687238,-5 -31.729372,-10.5 -42.240944,-5c-29.685456,15.7 4.769139,45.4 12.068841,51c10.70623,8.4 43.700884,-42.4 30.172103,-46z" fill="#8CC5E7"/>
   <path stroke="null" id="svg_10" d="m84.178086,41.5c18.29792,4.2 19.076555,13.7 14.404746,16.4c-2.725222,1.6 -0.778635,-8.1 -13.236793,-3.8c-5.061127,1.7 2.433234,14.3 -11.776853,0.2c-7.59169,-7.7 6.618397,-13.7 10.608901,-12.8z" fill="#3C89BF"/>
   <path stroke="null" id="svg_11" d="m247.788745,30.2c22.288424,1.7 74.067645,28.5 48.664681,94.2c-8.856972,23 -101.806514,10.3 -102.974466,-54c-0.389317,-26.8 34.649253,-41.7 54.309785,-40.2z" fill="#E0DEDC"/>
   <path stroke="#040000" id="svg_12" d="m275.040966,52.8c20.828484,1.9 25.889611,32.2 18.103262,39.3c-4.379821,4 -19.563202,8.6 -27.738868,-19c-2.627893,-8.8 1.946587,-21.1 9.635607,-20.3z" stroke-miterlimit="10" stroke-width="1.3483" fill="#040000"/>
   <path stroke="null" id="svg_13" d="m283.021974,58.4c3.01721,-0.9 8.564984,7 6.910385,10.3c-0.583976,1.2 -3.11454,2.9 -5.158456,1.3c-2.238575,-1.8 -7.68902,-9.9 -1.751929,-11.6z" fill="#FFFFFF"/>
   <path stroke="null" id="svg_14" d="m309.398231,131.1c38.639757,-7.8 43.408896,34.9 29.880114,42.2c-9.830266,5.4 -37.763793,-3.5 -42.435602,-13.4c-4.57448,-10 -7.299702,-24.8 12.555488,-28.8z" fill="#B8937F"/>
   <path stroke="null" id="svg_15" d="m335.287842,127.4c12.16617,4.3 11.484865,25.4 4.963798,26c-7.397032,0.7 -20.439166,-14.7 -23.553706,-20.9c-2.335905,-4.6 13.72344,-6.8 18.589908,-5.1z" fill="#040000"/>
   <path stroke="null" id="svg_16" d="m330.908021,170.9c3.11454,1.4 2.822552,18.8 -3.211869,21.5c-19.076555,8.3 -20.341837,-20.4 -16.643321,-24.9c2.822552,-3.6 17.713944,2.4 19.85519,3.4z" fill="#E0DEDC"/>
   <path stroke="null" id="svg_17" d="m117.270069,270.2c10.900889,0.5 19.173884,23.3 16.448662,34.3c-1.45994,5.9 -12.555488,5 -10.998218,9.6c2.627893,7.6 -16.935309,12.9 -20.633825,4.7c-18.784567,-40.8 5.158456,-49 15.183381,-48.6z" fill="#B8937F"/>
   <path stroke="null" id="svg_18" d="m136.9306,498.4c38.639757,-4.3 50.319281,14.7 43.214237,21.8c-7.494361,7.5 -37.082487,5.3 -53.239162,3.9c-6.423738,-0.5 0.291988,-24.6 10.024924,-25.7z" fill="#B8937F"/>
  </g>
 </g>
</svg>