<svg width="1200" height="600" version="1.1" xmlns="http://www.w3.org/2000/svg">
	<rect fill-opacity="0.25" height="580" width="600" y="10" x="300" fill="#7d4698" />
	<circle cy="419.718353619" cx="340.867061161" r="5" fill-opacity="0.4" fill="black" />
	<circle cy="346.563903885" cx="488.072270911" r="5" fill-opacity="0.4" fill="black" />
	<circle cy="273.481528539" cx="536.061285542" r="5" fill-opacity="0.4" fill="black" />
	<circle cy="172.568246093" cx="786.795205626" r="5" fill-opacity="0.4" fill="black" />
	<circle cy="397.302071989" cx="455.255987696" r="5" fill-opacity="0.4" fill="black" />
	<circle cy="196.633219887" cx="633.544005339" r="5" fill-opacity="0.4" fill="black" />
	<circle cy="134.305824315" cx="664.640586365" r="5" fill-opacity="0.4" fill="black" />
	<circle cy="135.052786848" cx="463.595190408" r="5" fill-opacity="0.4" fill="black" />
	<circle cy="400.418418622" cx="693.324069552" r="5" fill-opacity="0.4" fill="black" />
	<circle cy="476.970045041" cx="410.920865775" r="5" fill-opacity="0.4" fill="black" />
	<circle cy="479.39530053" cx="488.550150664" r="5" fill-opacity="0.4" fill="black" />
	<circle cy="520.368788411" cx="510.798898236" r="5" fill-opacity="0.4" fill="black" />
	<circle cy="46.13656023" cx="641.949375412" r="5" fill-opacity="0.4" fill="black" />
	<circle cy="389.552096029" cx="762.468669702" r="5" fill-opacity="0.4" fill="black" />
	<circle cy="191.748883468" cx="777.70623829" r="5" fill-opacity="0.4" fill="black" />
	<circle cy="80.1212093794" cx="544.492795322" r="5" fill-opacity="0.4" fill="black" />
	<circle cy="373.559200032" cx="443.828111475" r="5" fill-opacity="0.4" fill="black" />
	<circle cy="550.65442817" cx="708.282587054" r="5" fill-opacity="0.4" fill="black" />
	<circle cy="345.439358736" cx="493.125540425" r="5" fill-opacity="0.4" fill="black" />
	<circle cy="320.173728792" cx="777.624513892" r="5" fill-opacity="0.4" fill="black" />
	<circle cy="57.3873231862" cx="536.251722409" r="5" fill-opacity="0.4" fill="black" />
	<circle cy="307.724473086" cx="536.906700642" r="5" fill-opacity="0.4" fill="black" />
	<circle cy="371.949811143" cx="843.088729577" r="5" fill-opacity="0.4" fill="black" />
	<circle cy="515.631797197" cx="551.094440785" r="5" fill-opacity="0.4" fill="black" />
	<circle cy="163.7276291" cx="625.860532956" r="5" fill-opacity="0.4" fill="black" />
	<circle cy="77.4828203458" cx="833.542522648" r="5" fill-opacity="0.4" fill="black" />
	<circle cy="215.466318969" cx="444.662333633" r="5" fill-opacity="0.4" fill="black" />
	<circle cy="74.0147785341" cx="701.134420229" r="5" fill-opacity="0.4" fill="black" />
	<circle cy="259.84878373" cx="488.247714129" r="5" fill-opacity="0.4" fill="black" />
	<circle cy="255.648706761" cx="384.130591579" r="5" fill-opacity="0.4" fill="black" />
	<circle cy="55.4207344346" cx="335.668788401" r="5" fill-opacity="0.4" fill="black" />
	<circle cy="212.751868356" cx="664.565216467" r="5" fill-opacity="0.4" fill="black" />
	<circle cy="352.244470762" cx="699.004229831" r="5" fill-opacity="0.4" fill="black" />
	<circle cy="151.986927599" cx="634.737783597" r="5" fill-opacity="0.4" fill="black" />
	<circle cy="134.339709528" cx="390.588141447" r="5" fill-opacity="0.4" fill="black" />
	<circle cy="245.722902117" cx="448.002430348" r="5" fill-opacity="0.4" fill="black" />
	<circle cy="529.286876467" cx="636.743897886" r="5" fill-opacity="0.4" fill="black" />
	<circle cy="408.239388336" cx="649.990486063" r="5" fill-opacity="0.4" fill="black" />
	<circle cy="344.198850164" cx="687.066704152" r="5" fill-opacity="0.4" fill="black" />
	<circle cy="82.9354311472" cx="644.074083937" r="5" fill-opacity="0.4" fill="black" />
	<circle cy="467.912181103" cx="718.207122518" r="5" fill-opacity="0.4" fill="black" />
	<circle cy="509.629631082" cx="639.61929678" r="5" fill-opacity="0.4" fill="black" />
	<circle cy="498.922910101" cx="850.754213794" r="5" fill-opacity="0.4" fill="black" />
	<circle cy="388.50332842" cx="628.560683011" r="5" fill-opacity="0.4" fill="black" />
	<circle cy="322.225666843" cx="785.268973826" r="5" fill-opacity="0.4" fill="black" />
	<circle cy="318.058503775" cx="800.824600796" r="5" fill-opacity="0.4" fill="black" />
	<circle cy="73.6782900049" cx="513.92242027" r="5" fill-opacity="0.4" fill="black" />
	<circle cy="70.2386545564" cx="419.651936737" r="5" fill-opacity="0.4" fill="black" />
	<circle cy="312.200742702" cx="732.366169312" r="5" fill-opacity="0.4" fill="black" />
	<circle cy="459.699601816" cx="696.494705424" r="5" fill-opacity="0.4" fill="black" />
	<circle cy="398.125419722" cx="517.845314957" r="5" fill-opacity="0.4" fill="black" />
	<circle cy="83.1349357837" cx="722.732612489" r="5" fill-opacity="0.4" fill="black" />
	<circle cy="489.824152692" cx="574.295402036" r="5" fill-opacity="0.4" fill="black" />
	<circle cy="227.248253514" cx="585.514194153" r="5" fill-opacity="0.4" fill="black" />
	<circle cy="373.665334132" cx="373.664085205" r="5" fill-opacity="0.4" fill="black" />
	<circle cy="182.273065375" cx="674.39340143" r="5" fill-opacity="0.4" fill="black" />
	<circle cy="538.86487095" cx="848.596935999" r="5" fill-opacity="0.4" fill="black" />
	<circle cy="54.1269535151" cx="445.502660609" r="5" fill-opacity="0.4" fill="black" />
	<circle cy="407.271931267" cx="573.210557455" r="5" fill-opacity="0.4" fill="black" />
	<circle cy="164.18977993" cx="575.156082712" r="5" fill-opacity="0.4" fill="black" />
	<circle cy="297.593901358" cx="727.749953227" r="5" fill-opacity="0.4" fill="black" />
	<circle cy="339.159792395" cx="420.864154894" r="5" fill-opacity="0.4" fill="black" />
	<circle cy="214.672027799" cx="430.933927249" r="5" fill-opacity="0.4" fill="black" />
	<circle cy="542.827286186" cx="433.101846062" r="5" fill-opacity="0.4" fill="black" />
	<circle cy="542.153502259" cx="426.174154481" r="5" fill-opacity="0.4" fill="black" />
	<circle cy="106.003688679" cx="333.63770837" r="5" fill-opacity="0.4" fill="black" />
	<circle cy="440.533147239" cx="669.266092637" r="5" fill-opacity="0.4" fill="black" />
	<circle cy="411.916584184" cx="824.839970294" r="5" fill-opacity="0.4" fill="black" />
	<circle cy="120.915138281" cx="552.829313084" r="5" fill-opacity="0.4" fill="black" />
	<circle cy="324.601494243" cx="488.861688025" r="5" fill-opacity="0.4" fill="black" />
	<circle cy="325.556428389" cx="347.520166025" r="5" fill-opacity="0.4" fill="black" />
	<circle cy="363.041706288" cx="371.069566643" r="5" fill-opacity="0.4" fill="black" />
	<circle cy="407.29684474" cx="857.485255938" r="5" fill-opacity="0.4" fill="black" />
	<circle cy="144.118834342" cx="354.757579084" r="5" fill-opacity="0.4" fill="black" />
	<circle cy="177.023339427" cx="717.499967903" r="5" fill-opacity="0.4" fill="black" />
	<circle cy="556.279155871" cx="831.276934465" r="5" fill-opacity="0.4" fill="black" />
	<circle cy="122.212217175" cx="447.849499961" r="5" fill-opacity="0.4" fill="black" />
	<circle cy="492.842043734" cx="447.862139934" r="5" fill-opacity="0.4" fill="black" />
	<circle cy="523.995758346" cx="650.968320064" r="5" fill-opacity="0.4" fill="black" />
	<circle cy="303.92471929" cx="415.274961254" r="5" fill-opacity="0.4" fill="black" />
	<circle cy="58.6913092525" cx="702.980481552" r="5" fill-opacity="0.4" fill="black" />
	<circle cy="406.20673841" cx="579.626904204" r="5" fill-opacity="0.4" fill="black" />
	<circle cy="128.844998364" cx="665.151964263" r="5" fill-opacity="0.4" fill="black" />
	<circle cy="547.975754894" cx="408.625991426" r="5" fill-opacity="0.4" fill="black" />
	<circle cy="42.6611260087" cx="441.898731414" r="5" fill-opacity="0.4" fill="black" />
	<circle cy="539.394421948" cx="656.947536516" r="5" fill-opacity="0.4" fill="black" />
	<circle cy="317.616377875" cx="487.651503101" r="5" fill-opacity="0.4" fill="black" />
	<circle cy="556.799535626" cx="369.994007428" r="5" fill-opacity="0.4" fill="black" />
	<circle cy="557.070644777" cx="377.865623848" r="5" fill-opacity="0.4" fill="black" />
	<circle cy="205.067068789" cx="416.343002845" r="5" fill-opacity="0.4" fill="black" />
	<circle cy="325.699312279" cx="754.579662481" r="5" fill-opacity="0.4" fill="black" />
	<circle cy="232.045503629" cx="688.020579749" r="5" fill-opacity="0.4" fill="black" />
	<circle cy="242.241003292" cx="426.782719917" r="5" fill-opacity="0.4" fill="black" />
	<circle cy="332.161491361" cx="342.128950317" r="5" fill-opacity="0.4" fill="black" />
	<circle cy="448.433597661" cx="447.775682734" r="5" fill-opacity="0.4" fill="black" />
	<circle cy="356.239878725" cx="764.442022607" r="5" fill-opacity="0.4" fill="black" />
	<circle cy="216.241487469" cx="393.318624974" r="5" fill-opacity="0.4" fill="black" />
	<circle cy="331.644383304" cx="614.198896104" r="5" fill-opacity="0.4" fill="black" />
	<circle cy="68.0000917661" cx="722.2729787" r="5" fill-opacity="0.4" fill="black" />
	<circle cy="266.078762384" cx="518.684547465" r="5" fill-opacity="0.4" fill="black" />
	<circle cy="246.678681849" cx="805.007715373" r="5" fill-opacity="0.4" fill="black" />
	<circle cy="276.447039912" cx="604.54570056" r="5" fill-opacity="0.4" fill="black" />
	<circle cy="463.52871676" cx="808.142941431" r="5" fill-opacity="0.4" fill="black" />
	<circle cy="497.187180124" cx="473.278318039" r="5" fill-opacity="0.4" fill="black" />
	<circle cy="226.337184304" cx="357.210255168" r="5" fill-opacity="0.4" fill="black" />
	<circle cy="223.923859202" cx="771.967341629" r="5" fill-opacity="0.4" fill="black" />
	<circle cy="437.416657137" cx="391.364011324" r="5" fill-opacity="0.4" fill="black" />
	<circle cy="477.435684858" cx="720.91279896" r="5" fill-opacity="0.4" fill="black" />
	<circle cy="56.5220867719" cx="358.176434607" r="5" fill-opacity="0.4" fill="black" />
	<circle cy="474.74458818" cx="723.398229069" r="5" fill-opacity="0.4" fill="black" />
	<circle cy="51.3835486298" cx="749.616200907" r="5" fill-opacity="0.4" fill="black" />
	<circle cy="442.118397246" cx="762.330833469" r="5" fill-opacity="0.4" fill="black" />
	<circle cy="268.9991338" cx="862.086195406" r="5" fill-opacity="0.4" fill="black" />
	<circle cy="284.20667406" cx="736.535849964" r="5" fill-opacity="0.4" fill="black" />
	<circle cy="232.713663772" cx="475.728922661" r="5" fill-opacity="0.4" fill="black" />
	<circle cy="546.100504395" cx="525.175553851" r="5" fill-opacity="0.4" fill="black" />
	<circle cy="454.759289086" cx="356.076524395" r="5" fill-opacity="0.4" fill="black" />
	<circle cy="534.350207435" cx="716.520494397" r="5" fill-opacity="0.4" fill="black" />
	<circle cy="452.482900938" cx="712.228222006" r="5" fill-opacity="0.4" fill="black" />
	<circle cy="557.123597301" cx="635.351962081" r="5" fill-opacity="0.4" fill="black" />
	<circle cy="51.1368454941" cx="478.082737295" r="5" fill-opacity="0.4" fill="black" />
	<circle cy="299.067319188" cx="388.454458954" r="5" fill-opacity="0.4" fill="black" />
	<circle cy="551.092449261" cx="476.113452772" r="5" fill-opacity="0.4" fill="black" />
	<circle cy="298.48558772" cx="514.396919771" r="5" fill-opacity="0.4" fill="black" />
	<circle cy="54.4392278091" cx="347.615320348" r="5" fill-opacity="0.4" fill="black" />
	<circle cy="414.513266067" cx="607.325428771" r="5" fill-opacity="0.4" fill="black" />
	<circle cy="216.596770109" cx="418.087581435" r="5" fill-opacity="0.4" fill="black" />
	<circle cy="140.723395297" cx="564.919044451" r="5" fill-opacity="0.4" fill="black" />
	<circle cy="70.7755886098" cx="606.036540275" r="5" fill-opacity="0.4" fill="black" />
	<circle cy="189.080744221" cx="690.86230531" r="5" fill-opacity="0.4" fill="black" />
	<circle cy="256.215515693" cx="786.695618631" r="5" fill-opacity="0.4" fill="black" />
	<circle cy="448.928845652" cx="653.185280827" r="5" fill-opacity="0.4" fill="black" />
	<circle cy="150.725328161" cx="809.403333751" r="5" fill-opacity="0.4" fill="black" />
	<circle cy="485.821403336" cx="502.532463799" r="5" fill-opacity="0.4" fill="black" />
	<circle cy="520.464096082" cx="612.381818907" r="5" fill-opacity="0.4" fill="black" />
	<circle cy="102.469953194" cx="616.058250312" r="5" fill-opacity="0.4" fill="black" />
	<circle cy="293.710241084" cx="815.337343304" r="5" fill-opacity="0.4" fill="black" />
	<circle cy="49.1029338239" cx="516.7357861" r="5" fill-opacity="0.4" fill="black" />
	<circle cy="511.220329221" cx="471.183117161" r="5" fill-opacity="0.4" fill="black" />
	<circle cy="218.526366657" cx="774.4143619" r="5" fill-opacity="0.4" fill="black" />
	<circle cy="498.29711096" cx="370.517144777" r="5" fill-opacity="0.4" fill="black" />
	<circle cy="349.307600494" cx="844.29231103" r="5" fill-opacity="0.4" fill="black" />
	<circle cy="134.786740467" cx="647.658992064" r="5" fill-opacity="0.4" fill="black" />
	<circle cy="513.696909645" cx="736.877236501" r="5" fill-opacity="0.4" fill="black" />
	<circle cy="284.170119469" cx="757.82940655" r="5" fill-opacity="0.4" fill="black" />
	<circle cy="175.965383322" cx="475.395731064" r="5" fill-opacity="0.4" fill="black" />
	<circle cy="453.643419697" cx="337.062987251" r="5" fill-opacity="0.4" fill="black" />
	<circle cy="356.245078204" cx="773.279633946" r="5" fill-opacity="0.4" fill="black" />
	<circle cy="108.249094746" cx="339.72280793" r="5" fill-opacity="0.4" fill="black" />
	<circle cy="193.207549045" cx="569.594610667" r="5" fill-opacity="0.4" fill="black" />
	<circle cy="464.316387834" cx="695.203896584" r="5" fill-opacity="0.4" fill="black" />
	<circle cy="60.1980801788" cx="705.294151588" r="5" fill-opacity="0.4" fill="black" />
	<circle cy="108.700266231" cx="443.723286778" r="5" fill-opacity="0.4" fill="black" />
	<circle cy="297.015535532" cx="850.87822724" r="5" fill-opacity="0.4" fill="black" />
	<circle cy="147.197803157" cx="432.275775831" r="5" fill-opacity="0.4" fill="black" />
	<circle cy="119.484953287" cx="414.682921274" r="5" fill-opacity="0.4" fill="black" />
	<circle cy="367.199128126" cx="782.886618986" r="5" fill-opacity="0.4" fill="black" />
	<circle cy="65.0018041028" cx="545.750659288" r="5" fill-opacity="0.4" fill="black" />
	<circle cy="483.808200652" cx="502.872120027" r="5" fill-opacity="0.4" fill="black" />
	<circle cy="430.889059418" cx="738.700591591" r="5" fill-opacity="0.4" fill="black" />
	<circle cy="57.7272663049" cx="419.660410723" r="5" fill-opacity="0.4" fill="black" />
	<circle cy="488.934761944" cx="862.261251939" r="5" fill-opacity="0.4" fill="black" />
	<circle cy="80.7534315711" cx="714.974549984" r="5" fill-opacity="0.4" fill="black" />
	<circle cy="383.052374821" cx="361.90347023" r="5" fill-opacity="0.4" fill="black" />
	<circle cy="309.546502893" cx="814.247001471" r="5" fill-opacity="0.4" fill="black" />
	<circle cy="91.0958146425" cx="431.167980825" r="5" fill-opacity="0.4" fill="black" />
	<circle cy="531.784725881" cx="815.43499248" r="5" fill-opacity="0.4" fill="black" />
	<circle cy="139.294266495" cx="425.728159499" r="5" fill-opacity="0.4" fill="black" />
	<circle cy="166.407897202" cx="623.227115886" r="5" fill-opacity="0.4" fill="black" />
	<circle cy="67.8168472699" cx="498.939941426" r="5" fill-opacity="0.4" fill="black" />
	<circle cy="382.431943037" cx="570.93498455" r="5" fill-opacity="0.4" fill="black" />
	<circle cy="246.426653426" cx="773.196172346" r="5" fill-opacity="0.4" fill="black" />
	<circle cy="407.987810022" cx="416.439554644" r="5" fill-opacity="0.4" fill="black" />
	<circle cy="53.298770574" cx="762.151237625" r="5" fill-opacity="0.4" fill="black" />
	<circle cy="434.165505738" cx="423.622199356" r="5" fill-opacity="0.4" fill="black" />
	<circle cy="374.2625415" cx="618.222470779" r="5" fill-opacity="0.4" fill="black" />
	<circle cy="241.124091566" cx="537.9643978" r="5" fill-opacity="0.4" fill="black" />
	<circle cy="117.761239019" cx="386.491526506" r="5" fill-opacity="0.4" fill="black" />
	<circle cy="386.425953591" cx="337.968314729" r="5" fill-opacity="0.4" fill="black" />
	<circle cy="42.6214943648" cx="419.206413861" r="5" fill-opacity="0.4" fill="black" />
	<circle cy="363.352311587" cx="345.675450717" r="5" fill-opacity="0.4" fill="black" />
	<circle cy="68.0435106891" cx="732.040829302" r="5" fill-opacity="0.4" fill="black" />
	<circle cy="262.664448549" cx="691.558343658" r="5" fill-opacity="0.4" fill="black" />
	<circle cy="538.103715011" cx="654.7201319" r="5" fill-opacity="0.4" fill="black" />
	<circle cy="146.644371443" cx="711.324134664" r="5" fill-opacity="0.4" fill="black" />
	<circle cy="216.875742896" cx="337.673156849" r="5" fill-opacity="0.4" fill="black" />
	<circle cy="167.939888771" cx="820.656316913" r="5" fill-opacity="0.4" fill="black" />
	<circle cy="473.210850312" cx="550.539808618" r="5" fill-opacity="0.4" fill="black" />
	<circle cy="268.148629426" cx="676.429464527" r="5" fill-opacity="0.4" fill="black" />
	<circle cy="321.667993776" cx="363.091002289" r="5" fill-opacity="0.4" fill="black" />
	<circle cy="531.102631711" cx="629.687610981" r="5" fill-opacity="0.4" fill="black" />
	<circle cy="447.535450545" cx="446.355994396" r="5" fill-opacity="0.4" fill="black" />
	<circle cy="554.11501196" cx="714.175864006" r="5" fill-opacity="0.4" fill="black" />
	<circle cy="325.176459642" cx="439.740899549" r="5" fill-opacity="0.4" fill="black" />
	<circle cy="209.781178429" cx="366.158585215" r="5" fill-opacity="0.4" fill="black" />
	<circle cy="160.369638534" cx="747.507393438" r="5" fill-opacity="0.4" fill="black" />
	<circle cy="541.947939994" cx="383.403819389" r="5" fill-opacity="0.4" fill="black" />
	<circle cy="461.881829189" cx="710.87770012" r="5" fill-opacity="0.4" fill="black" />
	<circle cy="236.885416479" cx="846.146377259" r="5" fill-opacity="0.4" fill="black" />
	<circle cy="446.978901908" cx="736.020602926" r="5" fill-opacity="0.4" fill="black" />
	<circle cy="245.179668515" cx="759.700950421" r="5" fill-opacity="0.4" fill="black" />
	<circle cy="445.501045734" cx="810.90369064" r="5" fill-opacity="0.4" fill="black" />
	<circle cy="471.889577644" cx="397.80520452" r="5" fill-opacity="0.4" fill="black" />
	<circle cy="401.421091179" cx="747.764640285" r="5" fill-opacity="0.4" fill="black" />
	<circle cy="186.506901016" cx="508.644042393" r="5" fill-opacity="0.4" fill="black" />
	<circle cy="556.07527773" cx="422.842928089" r="5" fill-opacity="0.4" fill="black" />
	<circle cy="224.495498549" cx="375.734562012" r="5" fill-opacity="0.4" fill="black" />
	<circle cy="276.972597452" cx="746.590100596" r="5" fill-opacity="0.4" fill="black" />
	<circle cy="202.936048371" cx="784.299297514" r="5" fill-opacity="0.4" fill="black" />
	<circle cy="306.873739431" cx="653.530130374" r="5" fill-opacity="0.4" fill="black" />
	<circle cy="456.756285815" cx="772.00244406" r="5" fill-opacity="0.4" fill="black" />
	<circle cy="319.901874895" cx="736.516322889" r="5" fill-opacity="0.4" fill="black" />
	<circle cy="81.229169916" cx="809.61985427" r="5" fill-opacity="0.4" fill="black" />
	<circle cy="340.777913852" cx="354.087094392" r="5" fill-opacity="0.4" fill="black" />
	<circle cy="214.931320353" cx="838.479457539" r="5" fill-opacity="0.4" fill="black" />
	<circle cy="466.818646237" cx="438.092503859" r="5" fill-opacity="0.4" fill="black" />
	<circle cy="388.554517025" cx="563.35984229" r="5" fill-opacity="0.4" fill="black" />
	<circle cy="275.135868399" cx="828.725140883" r="5" fill-opacity="0.4" fill="black" />
	<circle cy="94.3900896292" cx="560.244426838" r="5" fill-opacity="0.4" fill="black" />
	<circle cy="270.198188211" cx="645.382090527" r="5" fill-opacity="0.4" fill="black" />
	<circle cy="210.925009257" cx="620.604764956" r="5" fill-opacity="0.4" fill="black" />
	<circle cy="536.313819018" cx="820.162669261" r="5" fill-opacity="0.4" fill="black" />
	<circle cy="363.913511946" cx="475.655300285" r="5" fill-opacity="0.4" fill="black" />
	<circle cy="227.638791837" cx="343.405157274" r="5" fill-opacity="0.4" fill="black" />
	<circle cy="68.4176776269" cx="754.998468896" r="5" fill-opacity="0.4" fill="black" />
	<circle cy="476.600472465" cx="770.626320351" r="5" fill-opacity="0.4" fill="black" />
	<circle cy="345.686566599" cx="371.879937071" r="5" fill-opacity="0.4" fill="black" />
	<circle cy="331.224062768" cx="450.051614728" r="5" fill-opacity="0.4" fill="black" />
	<circle cy="319.596689544" cx="470.807908476" r="5" fill-opacity="0.4" fill="black" />
	<circle cy="534.25745713" cx="594.224439943" r="5" fill-opacity="0.4" fill="black" />
	<circle cy="77.3146134246" cx="408.419408028" r="5" fill-opacity="0.4" fill="black" />
	<circle cy="548.333468106" cx="385.337167911" r="5" fill-opacity="0.4" fill="black" />
	<circle cy="376.394409362" cx="805.466805203" r="5" fill-opacity="0.4" fill="black" />
	<circle cy="84.9552103597" cx="691.824340409" r="5" fill-opacity="0.4" fill="black" />
	<circle cy="532.668186719" cx="725.59536603" r="5" fill-opacity="0.4" fill="black" />
	<circle cy="344.785041764" cx="791.336396469" r="5" fill-opacity="0.4" fill="black" />
	<circle cy="103.300814333" cx="495.119762491" r="5" fill-opacity="0.4" fill="black" />
	<circle cy="275.957466024" cx="812.453876591" r="5" fill-opacity="0.4" fill="black" />
	<circle cy="415.962371935" cx="788.552992443" r="5" fill-opacity="0.4" fill="black" />
	<circle cy="411.643671957" cx="540.599386933" r="5" fill-opacity="0.4" fill="black" />
	<circle cy="269.667836543" cx="333.048254712" r="5" fill-opacity="0.4" fill="black" />
	<circle cy="185.314284625" cx="513.034761917" r="5" fill-opacity="0.4" fill="black" />
	<circle cy="256.567223719" cx="355.467468498" r="5" fill-opacity="0.4" fill="black" />
	<circle cy="365.801239941" cx="656.863922923" r="5" fill-opacity="0.4" fill="black" />
	<circle cy="555.372847909" cx="688.147853694" r="5" fill-opacity="0.4" fill="black" />
	<circle cy="56.59259554" cx="397.083402737" r="5" fill-opacity="0.4" fill="black" />
	<circle cy="218.875390016" cx="567.630622662" r="5" fill-opacity="0.4" fill="black" />
	<circle cy="514.076584806" cx="662.745025538" r="5" fill-opacity="0.4" fill="black" />
	<circle cy="225.014169065" cx="715.050546126" r="5" fill-opacity="0.4" fill="black" />
	<circle cy="523.334529377" cx="443.122488398" r="5" fill-opacity="0.4" fill="black" />
	<circle cy="447.809202356" cx="863.847987967" r="5" fill-opacity="0.4" fill="black" />
	<circle cy="116.382379632" cx="732.476455255" r="5" fill-opacity="0.4" fill="black" />
	<circle cy="472.52550116" cx="485.723379496" r="5" fill-opacity="0.4" fill="black" />
	<circle cy="273.523943232" cx="760.922698782" r="5" fill-opacity="0.4" fill="black" />
	<circle cy="518.622751458" cx="857.93085859" r="5" fill-opacity="0.4" fill="black" />
	<circle cy="77.2383351563" cx="846.760660291" r="5" fill-opacity="0.4" fill="black" />
<g transform="translate(0,150) scale(0.5,0.5)">
<svg width="397.8" height="535.6" xmlns="http://www.w3.org/2000/svg" xmlns:svg="http://www.w3.org/2000/svg">
 <g>
  <title>Layer 1</title>
  <g stroke="null" id="svg_1">
   <path stroke="null" id="svg_2" d="m315.335323,65c0,0 44.090201,-8 54.893761,40.2c11.387535,50.6 -26.278928,46.7 -26.278928,46.7l-28.614833,-86.9z" fill="#E0DEDC"/>
   <g stroke="null" id="svg_3">
    <path stroke="#040000" id="svg_4" d="m358.744218,87.2c8.272996,-0.3 15.086051,25.8 12.750147,35.2c-0.875964,3.5 -9.732936,6.3 -13.626111,-3.7c-2.822552,-7.3 -9.440948,-31.2 0.875964,-31.5z" stroke-miterlimit="10" stroke-width="1.3483" fill="#040000"/>
    <path stroke="null" id="svg_5" d="m364.875968,95c1.849258,-0.6 3.893175,4.5 4.57448,6.3c1.751929,5.3 -2.043917,5.1 -4.282492,2c-1.167952,-1.6 -2.141246,-7.6 -0.291988,-8.3z" fill="#FFFFFF"/>
   </g>
   <path stroke="null" id="svg_6" d="m336.942441,488.8c-5.061127,7.3 -40.489015,6.4 -44.868836,-1.3c-4.087833,-7.1 20.828484,-14.9 29.880114,-16.1c13.72344,-1.8 18.589908,12.1 14.988722,17.4z" fill="#B8937F"/>
   <path stroke="null" id="svg_7" d="m40.379872,447c-5.061127,7.3 -28.614833,3.7 -33.091983,-4c-4.087833,-7.1 9.051631,-12.2 18.103262,-13.4c13.72344,-1.8 18.589908,12.1 14.988722,17.4z" fill="#B8937F"/>
   <path stroke="null" id="svg_8" d="m197.469464,14.4c0,0 177.23677,-8.9 156.700274,217.6c-6.13175,68 42.630261,182.8 -28.420174,239.8c0,0 -99.37328,61.7 -232.519848,41.5c-19.465873,-3 -44.28486,-10 -61.512157,-57.1c-21.704448,-59.5 -6.423738,-121.5 12.847476,-165.5c21.704448,-49.7 20.633825,-105.8 19.076555,-115.3c-26.473587,-160.2 133.827874,-161 133.827874,-161z" fill="#8CC5E7"/>
   <path stroke="null" id="svg_9" d="m107.245145,39.8c-18.687238,-5 -31.729372,-10.5 -42.240944,-5c-29.685456,15.7 4.769139,45.4 12.068841,51c10.70623,8.4 43.700884,-42.4 30.172103,-46z" fill="#8CC5E7"/>
   <path stroke="null" id="svg_10" d="m84.178086,41.5c18.29792,4.2 19.076555,13.7 14.404746,16.4c-2.725222,1.6 -0.778635,-8.1 -13.236793,-3.8c-5.061127,1.7 2.433234,14.3 -11.776853,0.2c-7.59169,-7.7 6.618397,-13.7 10.608901,-12.8z" fill="#3C89BF"/>
   <path stroke="null" id="svg_11" d="m247.788745,30.2c22.288424,1.7 74.067645,28.5 48.664681,94.2c-8.856972,23 -101.806514,10.3 -102.974466,-54c-0.389317,-26.8 34.649253,-41.7 54.309785,-40.2z" fill="#E0DEDC"/>
   <path stroke="#040000" id="svg_12" d="m275.040966,52.8c20.828484,1.9 25.889611,32.2 18.103262,39.3c-4.379821,4 -19.563202,8.6 -27.738868,-19c-2.627893,-8.8 1.946587,-21.1 9.635607,-20.3z" stroke-miterlimit="10" stroke-width="1.3483" fill="#040000"/>
   <path stroke="null" id="svg_13" d="m283.021974,58.4c3.01721,-0.9 8.564984,7 6.910385,10.3c-0.583976,1.2 -3.11454,2.9 -5.158456,1.3c-2.238575,-1.8 -7.68902,-9.9 -1.751929,-11.6z" fill="#FFFFFF"/>
   <path stroke="null" id="svg_14" d="m309.398231,131.1c38.639757,-7.8 43.408896,34.9 29.880114,42.2c-9.830266,5.4 -37.763793,-3.5 -42.435602,-13.4c-4.57448,-10 -7.299702,-24.8 12.555488,-28.8z" fill="#B8937F"/>
   <path stroke="null" id="svg_15" d="m335.287842,127.4c12.16617,4.3 11.484865,25.4 4.963798,26c-7.397032,0.7 -20.439166,-14.7 -23.553706,-20.9c-2.335905,-4.6 13.72344,-6.8 18.589908,-5.1z" fill="#040000"/>
   <path stroke="null" id="svg_16" d="m330.908021,170.9c3.11454,1.4 2.822552,18.8 -3.211869,21.5c-19.076555,8.3 -20.341837,-20.4 -16.643321,-24.9c2.822552,-3.6 17.713944,2.4 19.85519,3.4z" fill="#E0DEDC"/>
   <path stroke="null" id="svg_17" d="m117.270069,270.2c10.900889,0.5 19.173884,23.3 16.448662,34.3c-1.45994,5.9 -12.555488,5 -10.998218,9.6c2.627893,7.6 -16.935309,12.9 -20.633825,4.7c-18.784567,-40.8 5.158456,-49 15.183381,-48.6z" fill="#B8937F"/>
   <path stroke="null" id="svg_18" d="m136.9306,498.4c38.639757,-4.3 50.319281,14.7 43.214237,21.8c-7.494361,7.5 -37.082487,5.3 -53.239162,3.9c-6.423738,-0.5 0.291988,-24.6 10.024924,-25.7z" fill="#B8937F"/>
  </g>
 </g>
</svg>
</g>
<g opacity="0.5">
<g transform="translate(990.0,150) scale(0.5,0.5)">
<svg width="397.8" height="535.6" xmlns="http://www.w3.org/2000/svg" xmlns:svg="http://www.w3.org/2000/svg">
 <g>
  <title>Layer 1</title>
  <g stroke="null" id="svg_1">
   <path stroke="#040000" id="svg_2" d="m250.4974,26c22.12677,1.7 73.438,28.8 48.25926,95.3c-8.77441,23.3 -100.90572,10.4 -102.05021,-54.7c-0.47687,-27.1 34.33465,-42.1 53.79095,-40.6z" stroke-miterlimit="10" stroke-width="8.917" fill="none"/>
   <path stroke="#040000" id="svg_3" d="m121.17022,268.7c10.77726,0.5 18.97943,23.6 16.30896,34.6c-1.43061,6 -12.494,5 -10.87264,9.7c2.5751,7.7 -16.78583,13.1 -20.50542,4.8c-18.59794,-41.2 5.1502,-49.5 15.0691,-49.1z" stroke-miterlimit="10" stroke-width="8.917" fill="none"/>
   <path stroke="#040000" id="svg_4" d="m324.31689,472.1c10.30039,1.3 13.82923,12.9 10.58652,17.6c-4.86408,7.1 -38.05424,6.5 -43.96743,-0.7c20.98229,-8.9 32.80867,-16.4 32.80867,-16.4c0.19075,-0.2 0.3815,-0.4 0.57224,-0.5z" stroke-miterlimit="10" stroke-linejoin="round" stroke-linecap="round" stroke-width="8.917" fill="none"/>
   <path stroke="#040000" id="svg_5" d="m122.02858,518.6c-19.17018,-4 -64.75896,4 -88.88859,-61.9c-0.66762,-1.8 -1.23986,-3.6 -1.81211,-5.3c-8.58366,0.3 -19.4563,-3 -22.31752,-8c-3.91034,-6.9 8.01142,-11.9 16.8812,-13.4c-9.72815,-51.5 3.62421,-102.7 19.93317,-140.6c21.55453,-50.2 20.50542,-107 18.97943,-116.5c-6.48543,-40.5 -1.52598,-70.9 9.63278,-93.7c-10.87264,-9.7 -34.04853,-34.5 -8.29754,-48.4c10.39577,-5.6 24.225,0 42.82294,5c1.04911,0.3 0.95374,0.9 1.43061,1.8c38.81723,-27.4 86.98111,-27.6 86.98111,-27.6s79.73269,-8.6 118.07304,56.5l-1.33524,-5.3c0,0 43.6813,-8 54.45857,40.7c7.82067,35.2 -7.43917,44.3 -17.73957,46.6c3.62421,23.1 4.57795,50.1 1.71673,81.6c-6.10394,68.6 40.15247,181.9 -27.56309,242c-11.73101,10.4 -75.6316,37.1 -142.39342,45.2" stroke-miterlimit="10" stroke-linejoin="round" stroke-linecap="round" stroke-width="8.917" fill="none"/>
   <path stroke="#040000" id="svg_6" d="m136.71618,501.5c26.03711,-5.2 47.0194,7.7 44.73042,20c-2.00285,10.7 -39.58022,8.1 -54.64932,6c-6.67618,-1 3.33809,-24.7 9.9189,-26z" stroke-miterlimit="10" stroke-width="8.917" fill="none"/>
   <path stroke="#03324B" id="svg_7" d="m318.7852,128.2" stroke-miterlimit="10" stroke-width="10.2888" fill="none"/>
   <path stroke="#03324B" id="svg_8" d="m307.62644,162.8c0.28612,-1.1 0.66762,-2.1 1.04911,-2.6c2.86122,-3.6 17.83494,2.5 19.93317,3.5c0.85837,0.4 1.43061,1.9 1.71673,4" stroke-miterlimit="10" stroke-width="5.4874" fill="none"/>
   <path stroke="null" id="svg_9" d="m85.11883,37.4c18.31181,4.3 19.17018,14 14.40148,16.7c-2.76585,1.6 -0.76299,-8.3 -13.25699,-3.9c-5.05482,1.7 2.38435,14.6 -11.82638,0.2c-7.53455,-7.7 6.67618,-13.9 10.68189,-13z" fill="#040000"/>
   <path stroke="#040000" id="svg_10" d="m249.16216,25.9c22.4129,1.7 74.29637,29.1 48.8315,96.4c-8.86978,23.5 -102.05021,10.5 -103.1947,-55.3c-0.47687,-27.4 34.71615,-42.7 54.3632,-41.1z" stroke-miterlimit="10" stroke-width="8.231" fill="none"/>
   <path stroke="#040000" id="svg_11" d="m307.05419,123c2.09823,-0.4 4.19646,-0.7 6.10394,-0.9c0.57224,0 1.14449,0.5 1.04911,1.1c-0.09537,0.4 0,0.8 0.19075,1.2c3.14734,6.4 16.78583,22.9 24.12963,21.3c0.28612,-0.1 0.57224,-0.2 0.76299,-0.4c1.90748,-1.1 4.29183,0.1 4.48258,2.3c0.76299,8.1 -1.81211,15.7 -6.77156,18.5c-1.71673,1 -4.00571,1.5 -6.67618,1.6c-0.28612,-2.1 -0.85837,-3.6 -1.71673,-4c-2.1936,-1 -17.07195,-7.2 -19.93317,-3.5c-0.47687,0.6 -0.76299,1.5 -1.04911,2.6c-6.19931,-2.8 -11.34951,-6.5 -13.06624,-10.4c-4.67333,-10.2 -7.3438,-25.4 12.494,-29.4z" stroke-miterlimit="10" stroke-width="8.231" fill="none"/>
   <path stroke="#040000" id="svg_12" d="m330.32546,167.8c0.85837,5.8 -0.47687,16 -4.95945,17.9c-16.78583,7.5 -19.8378,-14.4 -17.83494,-22.9" stroke-miterlimit="10" stroke-width="8.231" fill="none"/>
   <path stroke="null" id="svg_13" d="m353.69209,84.2c3.43346,-0.1 6.67618,4.5 9.06053,10.6c-0.85837,-1.6 -1.90748,-2.9 -2.86122,-2.5c-1.90748,0.7 -0.95374,6.8 0.28612,8.5c1.71673,2.5 4.48258,3.1 4.67333,0.5c1.90748,7.1 2.67047,14.7 1.62136,18.9c-0.85837,3.6 -9.72815,6.4 -13.63849,-3.7c-2.76585,-7.5 -9.34665,-32 0.85837,-32.3z" fill="#040000"/>
   <path stroke="null" id="svg_14" d="m274.53165,49c20.88691,2 25.94174,33 18.21644,40.2c-4.38721,4.1 -19.64705,8.8 -27.84922,-19.4c-2.5751,-9 1.90748,-21.6 9.63278,-20.8zm9.82352,17.6c2.00285,1.6 4.57795,-0.1 5.1502,-1.3c1.62136,-3.4 -4.00571,-11.4 -6.9623,-10.6c-5.91319,1.8 -0.3815,10 1.81211,11.9z" fill="#040000"/>
   <path stroke="null" id="svg_15" d="m334.04504,117.3c14.97372,5.4 14.21073,31.9 6.10394,32.7c-9.15591,0.9 -25.17874,-18.5 -28.9937,-26.2c-2.95659,-5.9 16.8812,-8.6 22.88977,-6.5z" fill="#040000"/>
  </g>
 </g>
</svg>
</g>
<text y="350" x="1055.0" font-size="170" font-family="monospace">?</text>
</g>
<g transform="translate(332,42) scale(0.7,0.7)">
<svg
   xmlns:dc="http://purl.org/dc/elements/1.1/"
   xmlns:cc="http://creativecommons.org/ns#"
   xmlns:rdf="http://www.w3.org/1999/02/22-rdf-syntax-ns#"
   xmlns:svg="http://www.w3.org/2000/svg"
   xmlns="http://www.w3.org/2000/svg"
   version="1.1"
   width="306"
   height="185"
   id="图层_1">
  <g
     transform="translate(-92,-63.999774)"
     id="layer3"
     style="display:inline">
    <g
       id="layer5">
      <path
         d="m 264.513,77.977773 -4.917,19.529001 c 6.965,-13.793001 18.027,-24.172001 30.729,-33.323001 -9.287,10.789 -17.754,21.579001 -22.944,32.368001 8.741,-12.292001 20.486,-19.120001 33.733,-23.627001 -17.618,15.706001 -31.60228,32.559277 -42.25528,49.494277 l -8.467,-3.687 c 1.501,-13.521 6.60928,-27.369276 14.12128,-40.754277 z"
         id="path2554"
         style="fill:#abcd03" />
      <path
         d="m 241.90113,115.14152 16.116,6.68594 c 0,4.098 -0.33313,16.59703 2.22938,20.28403 26.80289,34.5191 22.29349,103.71329 -5.42951,105.48829 -42.21656,0 -58.317,-28.679 -58.317,-55.03801 0,-24.037 28.816,-40.016 46.025,-54.219 4.37,-3.824 3.61113,-12.27525 -0.62387,-23.20125 z"
         id="path2534"
         style="fill:#fffcdb" />
      <path
         d="m 258.02197,121.58695 5.80803,2.96282 c -0.546,3.823 0.273,12.292 4.096,14.476 16.936,10.516 32.914,21.988 39.197,33.46 22.398,40.42601 -15.706,77.84601 -48.62,74.29501 17.891,-13.248 23.081,-40.42501 16.389,-70.06201 -2.731,-11.609 -6.966,-22.125 -14.478,-34.007 -3.25421,-5.83246 -2.11803,-13.06582 -2.39203,-21.12482 z"
         id="path2536"
         style="fill:#7d4698" />
    </g>
    <g
       id="layer4"
       style="display:inline">
      <path
         d="m 255.226,120.58877 12.018,1.639 c -3.551,11.745 6.966,19.939 10.38,21.852 7.64801,4.234 15.02301,8.604 20.89601,13.93 11.063,10.106 17.345,24.31 17.345,39.333 0,14.886 -6.829,29.226 -18.301,38.786 -10.789,9.014 -25.67501,12.838 -40.15201,12.838 -9.014,0 -17.072,-0.409 -25.812,-3.278 -19.939,-6.692 -34.826,-23.763 -36.055,-44.25 -1.093,-15.979 2.458,-28.134 14.887,-40.835 6.418,-6.692 19.393,-14.34 28.271,-20.486 4.371,-3.005 9.014,-11.473 0.136,-27.451 l 1.776,-1.366 13.15659,8.81203 -11.10759,-4.57803 c 0.956,1.366 3.551,7.512 4.098,9.287 1.229,5.053 0.683,9.971 -0.41,12.155 -5.599,10.107 -15.159,12.838 -22.124,18.574 -12.292,10.106 -25.676,18.164 -24.174,45.888 0.683,13.657 11.336,30.319 27.314,38.104 9.014,4.371 19.394,6.146 29.91,6.692 9.423,0.41 27.45101,-5.19 37.28401,-13.384 10.516,-8.74 16.389,-21.988 16.389,-35.508 0,-13.658 -5.463,-26.632 -15.706,-35.783 -5.873,-5.326 -15.56901,-11.745 -21.57801,-15.16 -6.009,-3.414 -13.521,-12.974 -11.063,-22.124 z"
         id="path2538" />
      <path
         d="m 251.539,140.80177 c -1.229,6.283 -2.595,17.618 -8.058,21.852 -2.322,1.638 -4.644,3.278 -7.102,4.916 -9.833,6.693 -19.667,12.974 -24.173,29.09 -0.956,3.415 -0.136,7.102 0.684,10.516 2.458,9.833 9.423,20.486 14.886,26.769 0,0.273 1.093,0.956 1.093,1.229 4.507,5.327 5.873,6.829 22.944,10.652 l -0.41,1.913 c -10.243,-2.731 -18.71,-5.189 -24.037,-11.336 0,-0.136 -0.956,-1.093 -0.956,-1.093 -5.736,-6.556 -12.702,-17.481 -15.296,-27.724 -0.956,-4.098 -1.775,-7.238 -0.683,-11.473 4.643,-16.661 14.75,-23.217 24.993,-30.182 2.322,-1.502 5.053,-2.869 7.238,-4.644 4.233,-3.14 6.554,-12.701 8.877,-20.485 z"
         id="path2540" />
      <path
         d="m 255.90625,166.74951 c 0.137,7.102 -0.55625,10.66475 1.21875,15.71875 1.092,3.004 4.782,7.1015 5.875,11.0625 1.502,5.327 3.138,11.19901 3,14.75001 0,4.09799 -0.25625,11.74249 -2.03125,19.93749 -1.35362,6.77108 -4.47323,12.58153 -9.71875,15.875 -5.37327,-1.10644 -11.68224,-2.99521 -15.40625,-6.1875 -7.238,-6.282 -13.64875,-16.7865 -14.46875,-25.9375 -0.682,-7.51099 6.27275,-18.5885 15.96875,-24.1875 8.194,-4.78 10.1,-10.22775 11.875,-18.96875 -2.458,7.648 -4.7665,14.05925 -12.6875,18.15625 -11.472,6.009 -17.3585,16.09626 -16.8125,25.65625 0.819,12.291 5.7415,20.6195 15.4375,27.3125 4.097,2.868 11.75125,5.89875 16.53125,6.71875 l 0,-0.625 c 3.62493,-0.67888 8.31818,-6.63267 10.65625,-14.6875 2.049,-7.238 2.85675,-16.502 2.71875,-22.37499 -0.137,-3.414 -1.643,-10.80801 -4.375,-17.50001 -1.502,-3.687 -3.8095,-7.37375 -5.3125,-9.96875 -1.637,-2.597 -1.64875,-8.195 -2.46875,-14.75 z"
         id="path2542" />
      <path
         d="m 255.09375,193.53076 c 0.136,4.78 2.056,10.90451 2.875,17.18751 0.684,4.64399 0.387,9.30824 0.25,13.40624 -0.13495,4.74323 -1.7152,13.24218 -3.875,17.375 -2.03673,-0.93403 -2.83294,-1.99922 -4.15625,-3.71875 -1.638,-2.322 -2.75075,-4.644 -3.84375,-7.375 -0.819,-2.049 -1.7765,-4.394 -2.1875,-7.125 -0.546,-4.097 -0.393,-10.5065 4.25,-17.06249 3.551,-5.19001 4.36475,-5.58476 5.59375,-11.59376 -1.64,5.326 -2.8625,5.869 -6.6875,10.37501 -4.233,4.917 -4.9375,12.15924 -4.9375,18.03124 0,2.459 0.9805,5.18725 1.9375,7.78125 1.092,2.732 2.02925,5.452 3.53125,7.5 2.25796,3.32082 5.14798,5.20922 6.5625,5.5625 0.009,0.002 0.022,-0.002 0.0312,0 0.0303,0.007 0.0649,0.0255 0.0937,0.0312 l 0,-0.15625 c 2.64982,-2.95437 4.24444,-5.88934 4.78125,-8.84375 0.683,-3.551 0.84,-7.10975 1.25,-11.34375 0.409,-3.551 0.11225,-8.334 -0.84375,-13.24999 -1.365,-6.146 -3.669,-12.41226 -4.625,-16.78126 z"
         id="path2544" />
      <path
         d="m 255.499,135.06577 c 0.137,7.101 0.683,20.35 2.595,25.539 0.546,1.775 5.599,9.56 9.149,18.983 2.459,6.556 3.005,12.565 3.415,14.34 1.639,7.785 -0.41,20.896 -3.142,33.324 -1.365,6.692 -6.009,15.023 -11.335,18.301 l -1.092,1.912 c 3.005,-0.137 10.379,-7.375 12.974,-16.389 4.371,-15.296 6.146,-22.398 4.098,-39.333 -0.273,-1.64 -0.956,-7.238 -3.551,-13.248 -3.824,-9.151 -9.287,-17.891 -9.969,-19.667 -1.23,-2.867 -2.869,-15.295 -3.142,-23.762 z"
         id="path2550" />
      <path
         d="m 258.06151,125.35303 c -0.40515,7.29812 -0.51351,9.98574 0.85149,15.31174 1.502,5.873 9.151,14.34 12.292,24.037 6.009,18.574 4.507,42.884 0.136,61.867 -1.638,6.691 -9.424,16.389 -17.208,19.529 l 5.736,1.366 c 3.141,-0.137 11.198,-7.648 14.34,-16.252 5.052,-13.521 6.009,-29.636 3.96,-46.571 -0.137,-1.639 -2.869,-16.252 -5.463,-22.398 -3.688,-9.15 -10.244,-17.345 -10.926,-19.119 -1.228,-3.005 -3.92651,-9.24362 -3.71849,-17.77074 z"
         id="path2552" />
      <rect
         width="0.550412"
         height="126.01891"
         x="253.71959"
         y="120.21686"
         id="rect2556" />
    </g>
  </g>
  <path
     d="M 7.9430002,18.074997 H 117.611 c 4.096,0 7.647,3.414 7.647,7.648 v 32.367 c 0,4.234 -3.551,7.649 -7.647,7.649 H 95.077 c -5.054,0 -7.239,2.867 -7.239,6.145 V 177.86401 c 0,3.551 -2.868,6.282 -6.282,6.282 H 44.272 c -3.415,0 -6.146,-2.731 -6.146,-6.282 V 70.928997 c 0,-3.278 -3.005,-5.189 -5.326,-5.189 H 7.9430002 c -4.234,0 -7.64799997,-3.415 -7.64799997,-7.649 v -32.368 c -0.001,-4.234 3.41299997,-7.648 7.64799997,-7.648 z"
     id="path2528"
     style="fill:#7d4698" />
  <path
     d="m 289.30687,60.958997 9.696,0 c 3.551,0 6.419,2.868 6.419,6.282 l 0,34.690003 c 0,4.507 0.273,6.282 -5.19,6.282 -10.789,0 -15.705,5.736 -15.705,12.018 l 0,58.58901 c 0,2.732 -2.595,5.053 -5.736,5.053 l -34.827,0 c -3.141,0 -5.736,-2.321 -5.736,-5.053 l 0,-66.78401 c -0.0378,-1.17441 -0.0148,-2.9081 0.137,-3.823 1.912,-24.720003 21.30753,-44.497863 45.888,-46.981003 0.82399,-0.0832 3.73943,-0.273 5.054,-0.273 z"
     id="path2532"
     style="fill:#7d4698" />
</svg>

</g>
	<path stroke-width="8" stroke="#abcd03" d="M 200 300 L 439.2 248.4" fill="transparent" />
	<path stroke-width="8" stroke="#abcd03" d="M 439.2 248.4 L 600.0 382.56" fill="transparent" />
	<path stroke-width="8" stroke="#abcd03" d="M 600.0 382.56 L 734.0 196.8" fill="transparent" />
	<path stroke-width="8" stroke="#abcd03" d="M 734.0 196.8 L 1000 300" fill="transparent" />
	<circle cy="248.4" cx="439.2" r="7.5" fill-opacity="0.9" fill="red" />
	<circle cy="382.56" cx="600.0" r="7.5" fill-opacity="0.9" fill="green" />
	<circle cy="196.8" cx="734.0" r="7.5" fill-opacity="0.9" fill="blue" />
	<circle cy="289.68" cx="667.0" r="30.0" fill="blue" />
	<circle cy="289.68" cx="667.0" r="15.0" fill="gold" />
</svg>
