<svg width="1200" height="600" version="1.1" xmlns="http://www.w3.org/2000/svg">
	<rect fill-opacity="0.25" height="580" width="600" y="10" x="300" fill="#7d4698" />
	<circle cy="400.604767852" cx="433.437638226" r="5" fill-opacity="0.4" fill="black" />
	<circle cy="321.817683259" cx="592.814968452" r="5" fill-opacity="0.4" fill="black" />
	<circle cy="490.578809392" cx="651.735279582" r="5" fill-opacity="0.4" fill="black" />
	<circle cy="530.198368741" cx="767.354368257" r="5" fill-opacity="0.4" fill="black" />
	<circle cy="139.926113916" cx="544.91384415" r="5" fill-opacity="0.4" fill="black" />
	<circle cy="349.652228058" cx="777.180269462" r="5" fill-opacity="0.4" fill="black" />
	<circle cy="534.910135566" cx="413.686356057" r="5" fill-opacity="0.4" fill="black" />
	<circle cy="283.856578278" cx="681.25440633" r="5" fill-opacity="0.4" fill="black" />
	<circle cy="141.798308892" cx="826.593055176" r="5" fill-opacity="0.4" fill="black" />
	<circle cy="190.217867179" cx="340.590919521" r="5" fill-opacity="0.4" fill="black" />
	<circle cy="371.148123399" cx="867.406519079" r="5" fill-opacity="0.4" fill="black" />
	<circle cy="286.286509085" cx="369.151137375" r="5" fill-opacity="0.4" fill="black" />
	<circle cy="508.421351746" cx="688.704989653" r="5" fill-opacity="0.4" fill="black" />
	<circle cy="162.406136807" cx="708.733458158" r="5" fill-opacity="0.4" fill="black" />
	<circle cy="427.202715505" cx="457.089182941" r="5" fill-opacity="0.4" fill="black" />
	<circle cy="357.997186025" cx="390.633130409" r="5" fill-opacity="0.4" fill="black" />
	<circle cy="277.16144374" cx="823.209425831" r="5" fill-opacity="0.4" fill="black" />
	<circle cy="227.300517137" cx="551.585978052" r="5" fill-opacity="0.4" fill="black" />
	<circle cy="177.029400768" cx="384.145799609" r="5" fill-opacity="0.4" fill="black" />
	<circle cy="407.88519438" cx="788.516439185" r="5" fill-opacity="0.4" fill="black" />
	<circle cy="348.695326232" cx="718.202732383" r="5" fill-opacity="0.4" fill="black" />
	<circle cy="503.817423977" cx="494.341994104" r="5" fill-opacity="0.4" fill="black" />
	<circle cy="513.277520523" cx="354.34361704" r="5" fill-opacity="0.4" fill="black" />
	<circle cy="214.869058223" cx="662.716500647" r="5" fill-opacity="0.4" fill="black" />
	<circle cy="135.204730441" cx="492.367063115" r="5" fill-opacity="0.4" fill="black" />
	<circle cy="296.739313809" cx="566.809749887" r="5" fill-opacity="0.4" fill="black" />
	<circle cy="298.740269372" cx="663.220086839" r="5" fill-opacity="0.4" fill="black" />
	<circle cy="455.385941279" cx="455.241375838" r="5" fill-opacity="0.4" fill="black" />
	<circle cy="263.447560357" cx="674.43227646" r="5" fill-opacity="0.4" fill="black" />
	<circle cy="320.653662111" cx="492.351646637" r="5" fill-opacity="0.4" fill="black" />
	<circle cy="330.89697891" cx="664.525554068" r="5" fill-opacity="0.4" fill="black" />
	<circle cy="127.316863302" cx="623.12992349" r="5" fill-opacity="0.4" fill="black" />
	<circle cy="483.789554389" cx="548.14991463" r="5" fill-opacity="0.4" fill="black" />
	<circle cy="107.837507736" cx="386.518037325" r="5" fill-opacity="0.4" fill="black" />
	<circle cy="492.326142153" cx="357.659412449" r="5" fill-opacity="0.4" fill="black" />
	<circle cy="387.051772106" cx="508.620031145" r="5" fill-opacity="0.4" fill="black" />
	<circle cy="65.5046914659" cx="477.169354904" r="5" fill-opacity="0.4" fill="black" />
	<circle cy="96.38456094" cx="833.668825814" r="5" fill-opacity="0.4" fill="black" />
	<circle cy="367.280094077" cx="851.578645133" r="5" fill-opacity="0.4" fill="black" />
	<circle cy="345.828099917" cx="746.371306586" r="5" fill-opacity="0.4" fill="black" />
	<circle cy="366.51547338" cx="493.441764225" r="5" fill-opacity="0.4" fill="black" />
	<circle cy="448.854775716" cx="866.876544756" r="5" fill-opacity="0.4" fill="black" />
	<circle cy="377.042179748" cx="434.113264348" r="5" fill-opacity="0.4" fill="black" />
	<circle cy="378.233753649" cx="640.660927681" r="5" fill-opacity="0.4" fill="black" />
	<circle cy="262.300138194" cx="356.55324776" r="5" fill-opacity="0.4" fill="black" />
	<circle cy="407.513184183" cx="674.452731754" r="5" fill-opacity="0.4" fill="black" />
	<circle cy="386.651560412" cx="667.310055408" r="5" fill-opacity="0.4" fill="black" />
	<circle cy="516.784461061" cx="508.04681906" r="5" fill-opacity="0.4" fill="black" />
	<circle cy="264.268511543" cx="619.332875383" r="5" fill-opacity="0.4" fill="black" />
	<circle cy="542.126376502" cx="338.789472249" r="5" fill-opacity="0.4" fill="black" />
	<circle cy="77.1355723095" cx="802.544394039" r="5" fill-opacity="0.4" fill="black" />
	<circle cy="132.583877464" cx="553.884897802" r="5" fill-opacity="0.4" fill="black" />
	<circle cy="217.37175705" cx="644.123339523" r="5" fill-opacity="0.4" fill="black" />
	<circle cy="235.822860698" cx="368.860908781" r="5" fill-opacity="0.4" fill="black" />
	<circle cy="470.736319841" cx="623.527408057" r="5" fill-opacity="0.4" fill="black" />
	<circle cy="199.266487688" cx="763.426993221" r="5" fill-opacity="0.4" fill="black" />
	<circle cy="358.992803051" cx="773.899503661" r="5" fill-opacity="0.4" fill="black" />
	<circle cy="361.655469814" cx="433.797151639" r="5" fill-opacity="0.4" fill="black" />
	<circle cy="288.65545948" cx="790.854015765" r="5" fill-opacity="0.4" fill="black" />
	<circle cy="208.405707813" cx="527.57876696" r="5" fill-opacity="0.4" fill="black" />
	<circle cy="260.336365355" cx="820.149508007" r="5" fill-opacity="0.4" fill="black" />
	<circle cy="415.086750424" cx="689.446525263" r="5" fill-opacity="0.4" fill="black" />
	<circle cy="99.5133149946" cx="421.459195513" r="5" fill-opacity="0.4" fill="black" />
	<circle cy="302.413203597" cx="679.756536623" r="5" fill-opacity="0.4" fill="black" />
	<circle cy="368.544419243" cx="759.101403522" r="5" fill-opacity="0.4" fill="black" />
	<circle cy="148.601829163" cx="700.668294473" r="5" fill-opacity="0.4" fill="black" />
	<circle cy="168.267589994" cx="531.51348471" r="5" fill-opacity="0.4" fill="black" />
	<circle cy="401.216196813" cx="436.920073238" r="5" fill-opacity="0.4" fill="black" />
	<circle cy="552.317898556" cx="708.993183696" r="5" fill-opacity="0.4" fill="black" />
	<circle cy="438.237330721" cx="501.773351348" r="5" fill-opacity="0.4" fill="black" />
	<circle cy="81.2087703065" cx="776.608609564" r="5" fill-opacity="0.4" fill="black" />
	<circle cy="391.868841225" cx="636.34372227" r="5" fill-opacity="0.4" fill="black" />
	<circle cy="430.466509997" cx="861.598769621" r="5" fill-opacity="0.4" fill="black" />
	<circle cy="399.930070871" cx="795.171564506" r="5" fill-opacity="0.4" fill="black" />
	<circle cy="493.088576157" cx="811.90044659" r="5" fill-opacity="0.4" fill="black" />
	<circle cy="447.371677719" cx="632.827390363" r="5" fill-opacity="0.4" fill="black" />
	<circle cy="521.159201279" cx="828.810613154" r="5" fill-opacity="0.4" fill="black" />
	<circle cy="209.923836204" cx="690.240595649" r="5" fill-opacity="0.4" fill="black" />
	<circle cy="165.061732812" cx="407.871484231" r="5" fill-opacity="0.4" fill="black" />
	<circle cy="56.5055034888" cx="523.423389629" r="5" fill-opacity="0.4" fill="black" />
	<circle cy="149.904161696" cx="642.881755662" r="5" fill-opacity="0.4" fill="black" />
	<circle cy="265.734607163" cx="657.342578815" r="5" fill-opacity="0.4" fill="black" />
	<circle cy="333.369520939" cx="454.050350081" r="5" fill-opacity="0.4" fill="black" />
	<circle cy="421.958533074" cx="716.321406272" r="5" fill-opacity="0.4" fill="black" />
	<circle cy="144.227756591" cx="610.795063151" r="5" fill-opacity="0.4" fill="black" />
	<circle cy="183.973035716" cx="553.493508273" r="5" fill-opacity="0.4" fill="black" />
	<circle cy="129.313994025" cx="785.534697998" r="5" fill-opacity="0.4" fill="black" />
	<circle cy="356.059641224" cx="634.105584366" r="5" fill-opacity="0.4" fill="black" />
	<circle cy="105.723469093" cx="803.227958888" r="5" fill-opacity="0.4" fill="black" />
	<circle cy="309.499558964" cx="550.434407934" r="5" fill-opacity="0.4" fill="black" />
	<circle cy="322.1645535" cx="793.683488084" r="5" fill-opacity="0.4" fill="black" />
	<circle cy="479.425685886" cx="428.045340688" r="5" fill-opacity="0.4" fill="black" />
	<circle cy="243.240450058" cx="344.212787483" r="5" fill-opacity="0.4" fill="black" />
	<circle cy="178.40519587" cx="652.170346688" r="5" fill-opacity="0.4" fill="black" />
	<circle cy="115.900611651" cx="693.655854958" r="5" fill-opacity="0.4" fill="black" />
	<circle cy="432.746350582" cx="857.435593567" r="5" fill-opacity="0.4" fill="black" />
	<circle cy="479.554066758" cx="524.91953372" r="5" fill-opacity="0.4" fill="black" />
	<circle cy="266.501640135" cx="653.727964069" r="5" fill-opacity="0.4" fill="black" />
	<circle cy="356.981347018" cx="705.942242445" r="5" fill-opacity="0.4" fill="black" />
	<circle cy="334.436366166" cx="638.66119775" r="5" fill-opacity="0.4" fill="black" />
	<circle cy="180.249645162" cx="865.276063831" r="5" fill-opacity="0.4" fill="black" />
	<circle cy="133.508467843" cx="684.957346316" r="5" fill-opacity="0.4" fill="black" />
	<circle cy="80.199282954" cx="776.939932249" r="5" fill-opacity="0.4" fill="black" />
	<circle cy="492.297834571" cx="452.698906736" r="5" fill-opacity="0.4" fill="black" />
	<circle cy="84.7760698094" cx="374.588571562" r="5" fill-opacity="0.4" fill="black" />
	<circle cy="398.829517374" cx="417.450912024" r="5" fill-opacity="0.4" fill="black" />
	<circle cy="209.598359664" cx="804.892100607" r="5" fill-opacity="0.4" fill="black" />
	<circle cy="462.792844268" cx="727.940268386" r="5" fill-opacity="0.4" fill="black" />
	<circle cy="411.29818064" cx="581.5553418" r="5" fill-opacity="0.4" fill="black" />
	<circle cy="411.779543181" cx="789.641562916" r="5" fill-opacity="0.4" fill="black" />
	<circle cy="93.2053427674" cx="837.956030273" r="5" fill-opacity="0.4" fill="black" />
	<circle cy="209.835237272" cx="354.645304358" r="5" fill-opacity="0.4" fill="black" />
	<circle cy="453.580473937" cx="624.70519583" r="5" fill-opacity="0.4" fill="black" />
	<circle cy="254.803051273" cx="840.116535231" r="5" fill-opacity="0.4" fill="black" />
	<circle cy="549.060401518" cx="770.127056811" r="5" fill-opacity="0.4" fill="black" />
	<circle cy="472.086797284" cx="756.130316583" r="5" fill-opacity="0.4" fill="black" />
	<circle cy="293.910968986" cx="626.708436689" r="5" fill-opacity="0.4" fill="black" />
	<circle cy="424.833333586" cx="419.86441789" r="5" fill-opacity="0.4" fill="black" />
	<circle cy="421.200743756" cx="799.99582525" r="5" fill-opacity="0.4" fill="black" />
	<circle cy="287.663218306" cx="736.841626878" r="5" fill-opacity="0.4" fill="black" />
	<circle cy="413.38289254" cx="719.292871133" r="5" fill-opacity="0.4" fill="black" />
	<circle cy="239.276872869" cx="856.691923607" r="5" fill-opacity="0.4" fill="black" />
	<circle cy="268.154481972" cx="768.5040764" r="5" fill-opacity="0.4" fill="black" />
	<circle cy="232.946179608" cx="414.794856402" r="5" fill-opacity="0.4" fill="black" />
	<circle cy="211.125843215" cx="681.007401843" r="5" fill-opacity="0.4" fill="black" />
	<circle cy="237.097204541" cx="435.406147028" r="5" fill-opacity="0.4" fill="black" />
	<circle cy="462.591257309" cx="414.785889292" r="5" fill-opacity="0.4" fill="black" />
	<circle cy="325.381404489" cx="466.355612959" r="5" fill-opacity="0.4" fill="black" />
	<circle cy="480.169680253" cx="789.948395626" r="5" fill-opacity="0.4" fill="black" />
	<circle cy="199.805708884" cx="420.105408555" r="5" fill-opacity="0.4" fill="black" />
	<circle cy="210.059426749" cx="470.056119749" r="5" fill-opacity="0.4" fill="black" />
	<circle cy="544.819403011" cx="337.964351207" r="5" fill-opacity="0.4" fill="black" />
	<circle cy="380.328544148" cx="450.204732735" r="5" fill-opacity="0.4" fill="black" />
	<circle cy="435.162585997" cx="812.245700468" r="5" fill-opacity="0.4" fill="black" />
	<circle cy="352.506106566" cx="641.007325585" r="5" fill-opacity="0.4" fill="black" />
	<circle cy="190.532421119" cx="364.522209632" r="5" fill-opacity="0.4" fill="black" />
	<circle cy="100.540447585" cx="785.650478361" r="5" fill-opacity="0.4" fill="black" />
	<circle cy="201.201873601" cx="821.231614587" r="5" fill-opacity="0.4" fill="black" />
	<circle cy="488.998310017" cx="553.914395877" r="5" fill-opacity="0.4" fill="black" />
	<circle cy="284.319274455" cx="626.433462938" r="5" fill-opacity="0.4" fill="black" />
	<circle cy="271.303075126" cx="527.538223511" r="5" fill-opacity="0.4" fill="black" />
	<circle cy="90.6146107196" cx="778.490801985" r="5" fill-opacity="0.4" fill="black" />
	<circle cy="58.3033236426" cx="468.733644138" r="5" fill-opacity="0.4" fill="black" />
	<circle cy="105.877960918" cx="846.824671291" r="5" fill-opacity="0.4" fill="black" />
	<circle cy="254.335836384" cx="724.327046448" r="5" fill-opacity="0.4" fill="black" />
	<circle cy="436.580320035" cx="603.865591226" r="5" fill-opacity="0.4" fill="black" />
	<circle cy="312.198968205" cx="776.199470512" r="5" fill-opacity="0.4" fill="black" />
	<circle cy="333.733691727" cx="654.236131088" r="5" fill-opacity="0.4" fill="black" />
	<circle cy="150.387133131" cx="751.887625489" r="5" fill-opacity="0.4" fill="black" />
	<circle cy="513.380903472" cx="646.836319817" r="5" fill-opacity="0.4" fill="black" />
	<circle cy="150.588293546" cx="403.715549891" r="5" fill-opacity="0.4" fill="black" />
	<circle cy="425.822056246" cx="728.31474934" r="5" fill-opacity="0.4" fill="black" />
	<circle cy="182.019751374" cx="390.441319083" r="5" fill-opacity="0.4" fill="black" />
	<circle cy="50.2494078384" cx="543.999825072" r="5" fill-opacity="0.4" fill="black" />
	<circle cy="475.869766901" cx="696.641668765" r="5" fill-opacity="0.4" fill="black" />
	<circle cy="264.794656056" cx="352.520795108" r="5" fill-opacity="0.4" fill="black" />
	<circle cy="355.06398001" cx="394.276782015" r="5" fill-opacity="0.4" fill="black" />
	<circle cy="52.975400872" cx="835.111468614" r="5" fill-opacity="0.4" fill="black" />
	<circle cy="112.162892451" cx="856.698424558" r="5" fill-opacity="0.4" fill="black" />
	<circle cy="382.116773399" cx="739.438542515" r="5" fill-opacity="0.4" fill="black" />
	<circle cy="139.219949067" cx="563.160289023" r="5" fill-opacity="0.4" fill="black" />
	<circle cy="453.504320331" cx="644.741146471" r="5" fill-opacity="0.4" fill="black" />
	<circle cy="526.361531283" cx="813.180253723" r="5" fill-opacity="0.4" fill="black" />
	<circle cy="391.516763904" cx="493.865104031" r="5" fill-opacity="0.4" fill="black" />
	<circle cy="188.08463995" cx="590.348308865" r="5" fill-opacity="0.4" fill="black" />
	<circle cy="514.731100111" cx="557.913196525" r="5" fill-opacity="0.4" fill="black" />
	<circle cy="407.620448612" cx="517.263792041" r="5" fill-opacity="0.4" fill="black" />
	<circle cy="52.2896324786" cx="840.707362006" r="5" fill-opacity="0.4" fill="black" />
	<circle cy="435.952850278" cx="728.173700241" r="5" fill-opacity="0.4" fill="black" />
	<circle cy="128.369657959" cx="434.630624495" r="5" fill-opacity="0.4" fill="black" />
	<circle cy="288.680396002" cx="568.230022269" r="5" fill-opacity="0.4" fill="black" />
	<circle cy="428.422902475" cx="567.086858389" r="5" fill-opacity="0.4" fill="black" />
	<circle cy="90.8906358718" cx="723.748234106" r="5" fill-opacity="0.4" fill="black" />
	<circle cy="502.148965382" cx="725.931807953" r="5" fill-opacity="0.4" fill="black" />
	<circle cy="399.005501574" cx="731.015234519" r="5" fill-opacity="0.4" fill="black" />
	<circle cy="544.714561594" cx="843.102921127" r="5" fill-opacity="0.4" fill="black" />
	<circle cy="311.703476227" cx="400.66061605" r="5" fill-opacity="0.4" fill="black" />
	<circle cy="404.5336127" cx="540.946264175" r="5" fill-opacity="0.4" fill="black" />
	<circle cy="146.023588055" cx="614.73626957" r="5" fill-opacity="0.4" fill="black" />
	<circle cy="163.854244861" cx="623.676080585" r="5" fill-opacity="0.4" fill="black" />
	<circle cy="270.553380834" cx="702.615252709" r="5" fill-opacity="0.4" fill="black" />
	<circle cy="351.526571165" cx="771.420443534" r="5" fill-opacity="0.4" fill="black" />
	<circle cy="257.278184161" cx="381.888668403" r="5" fill-opacity="0.4" fill="black" />
	<circle cy="199.920907722" cx="820.472967238" r="5" fill-opacity="0.4" fill="black" />
	<circle cy="197.516686662" cx="503.739771367" r="5" fill-opacity="0.4" fill="black" />
	<circle cy="98.8494595722" cx="553.374563039" r="5" fill-opacity="0.4" fill="black" />
	<circle cy="300.228928438" cx="620.719207287" r="5" fill-opacity="0.4" fill="black" />
	<circle cy="460.82776474" cx="457.265365341" r="5" fill-opacity="0.4" fill="black" />
	<circle cy="179.685233332" cx="449.750067047" r="5" fill-opacity="0.4" fill="black" />
	<circle cy="326.930016886" cx="771.298556661" r="5" fill-opacity="0.4" fill="black" />
	<circle cy="181.893586812" cx="675.555415025" r="5" fill-opacity="0.4" fill="black" />
	<circle cy="397.414798731" cx="719.692015428" r="5" fill-opacity="0.4" fill="black" />
	<circle cy="358.522129863" cx="865.899728999" r="5" fill-opacity="0.4" fill="black" />
	<circle cy="125.492182839" cx="863.176570687" r="5" fill-opacity="0.4" fill="black" />
	<circle cy="507.104360301" cx="397.588268061" r="5" fill-opacity="0.4" fill="black" />
	<circle cy="531.5654361" cx="436.838178822" r="5" fill-opacity="0.4" fill="black" />
	<circle cy="167.556256515" cx="511.357045415" r="5" fill-opacity="0.4" fill="black" />
	<circle cy="465.51225156" cx="487.55359077" r="5" fill-opacity="0.4" fill="black" />
	<circle cy="368.074398909" cx="371.504747943" r="5" fill-opacity="0.4" fill="black" />
	<circle cy="422.345961821" cx="593.884898147" r="5" fill-opacity="0.4" fill="black" />
	<circle cy="515.56151567" cx="491.72239763" r="5" fill-opacity="0.4" fill="black" />
	<circle cy="438.613765756" cx="666.32123285" r="5" fill-opacity="0.4" fill="black" />
	<circle cy="188.79566146" cx="430.887897719" r="5" fill-opacity="0.4" fill="black" />
	<circle cy="58.2923662249" cx="440.000922612" r="5" fill-opacity="0.4" fill="black" />
	<circle cy="443.144789131" cx="447.211140962" r="5" fill-opacity="0.4" fill="black" />
	<circle cy="100.987733079" cx="548.861533767" r="5" fill-opacity="0.4" fill="black" />
	<circle cy="146.03423681" cx="615.45764665" r="5" fill-opacity="0.4" fill="black" />
	<circle cy="352.446220603" cx="505.382274736" r="5" fill-opacity="0.4" fill="black" />
	<circle cy="520.787361756" cx="473.150878961" r="5" fill-opacity="0.4" fill="black" />
	<circle cy="486.318224859" cx="576.992854381" r="5" fill-opacity="0.4" fill="black" />
	<circle cy="275.22926585" cx="692.674416608" r="5" fill-opacity="0.4" fill="black" />
	<circle cy="407.907096296" cx="643.974474725" r="5" fill-opacity="0.4" fill="black" />
	<circle cy="126.757647602" cx="417.764430128" r="5" fill-opacity="0.4" fill="black" />
	<circle cy="235.198035883" cx="603.785050031" r="5" fill-opacity="0.4" fill="black" />
	<circle cy="477.03747131" cx="866.114539347" r="5" fill-opacity="0.4" fill="black" />
	<circle cy="371.972873439" cx="664.891381635" r="5" fill-opacity="0.4" fill="black" />
	<circle cy="540.333084279" cx="845.909374337" r="5" fill-opacity="0.4" fill="black" />
	<circle cy="467.788714843" cx="526.314362316" r="5" fill-opacity="0.4" fill="black" />
	<circle cy="257.034137561" cx="588.079484705" r="5" fill-opacity="0.4" fill="black" />
	<circle cy="431.001314722" cx="754.160380878" r="5" fill-opacity="0.4" fill="black" />
	<circle cy="534.600989171" cx="736.082412791" r="5" fill-opacity="0.4" fill="black" />
	<circle cy="267.797254558" cx="521.439784274" r="5" fill-opacity="0.4" fill="black" />
	<circle cy="533.610235097" cx="677.231727429" r="5" fill-opacity="0.4" fill="black" />
	<circle cy="361.241932761" cx="597.089314491" r="5" fill-opacity="0.4" fill="black" />
	<circle cy="73.0456415193" cx="435.909180814" r="5" fill-opacity="0.4" fill="black" />
	<circle cy="82.7262901204" cx="463.261572335" r="5" fill-opacity="0.4" fill="black" />
	<circle cy="128.161134986" cx="799.964049545" r="5" fill-opacity="0.4" fill="black" />
	<circle cy="94.9172299983" cx="367.78697518" r="5" fill-opacity="0.4" fill="black" />
	<circle cy="495.031676385" cx="859.163410078" r="5" fill-opacity="0.4" fill="black" />
	<circle cy="497.553155832" cx="844.406364835" r="5" fill-opacity="0.4" fill="black" />
	<circle cy="407.084605965" cx="479.948020795" r="5" fill-opacity="0.4" fill="black" />
	<circle cy="158.98161334" cx="582.007379887" r="5" fill-opacity="0.4" fill="black" />
	<circle cy="337.99808744" cx="449.434261304" r="5" fill-opacity="0.4" fill="black" />
	<circle cy="378.004040885" cx="839.122544354" r="5" fill-opacity="0.4" fill="black" />
	<circle cy="262.985531719" cx="339.94284023" r="5" fill-opacity="0.4" fill="black" />
	<circle cy="329.421546936" cx="555.258814398" r="5" fill-opacity="0.4" fill="black" />
	<circle cy="193.58190751" cx="857.729778301" r="5" fill-opacity="0.4" fill="black" />
	<circle cy="166.49662817" cx="340.432421928" r="5" fill-opacity="0.4" fill="black" />
	<circle cy="402.499375757" cx="439.133574228" r="5" fill-opacity="0.4" fill="black" />
	<circle cy="54.9134831947" cx="563.230764237" r="5" fill-opacity="0.4" fill="black" />
	<circle cy="218.616059839" cx="653.771988343" r="5" fill-opacity="0.4" fill="black" />
	<circle cy="65.0115875244" cx="684.545947272" r="5" fill-opacity="0.4" fill="black" />
	<circle cy="345.031783974" cx="396.612462441" r="5" fill-opacity="0.4" fill="black" />
	<circle cy="214.952994937" cx="347.346889848" r="5" fill-opacity="0.4" fill="black" />
	<circle cy="276.190671379" cx="803.074824002" r="5" fill-opacity="0.4" fill="black" />
	<circle cy="132.35849676" cx="705.981390587" r="5" fill-opacity="0.4" fill="black" />
	<circle cy="157.521639736" cx="473.191678784" r="5" fill-opacity="0.4" fill="black" />
	<circle cy="339.762300117" cx="745.916401606" r="5" fill-opacity="0.4" fill="black" />
	<circle cy="65.5685915328" cx="649.813584851" r="5" fill-opacity="0.4" fill="black" />
	<circle cy="142.121455776" cx="522.143580187" r="5" fill-opacity="0.4" fill="black" />
	<circle cy="299.030160631" cx="372.883821871" r="5" fill-opacity="0.4" fill="black" />
	<circle cy="510.656565332" cx="841.78536686" r="5" fill-opacity="0.4" fill="black" />
	<circle cy="327.599392677" cx="349.703682202" r="5" fill-opacity="0.4" fill="black" />
	<circle cy="132.40646753" cx="482.216327621" r="5" fill-opacity="0.4" fill="black" />
	<circle cy="501.794545387" cx="779.863601358" r="5" fill-opacity="0.4" fill="black" />
	<circle cy="109.280071191" cx="516.415938568" r="5" fill-opacity="0.4" fill="black" />
<g transform="translate(0,150) scale(0.5,0.5)">
<svg width="397.8" height="535.6" xmlns="http://www.w3.org/2000/svg" xmlns:svg="http://www.w3.org/2000/svg">
 <g>
  <title>Layer 1</title>
  <g stroke="null" id="svg_1">
   <path stroke="null" id="svg_2" d="m315.335323,65c0,0 44.090201,-8 54.893761,40.2c11.387535,50.6 -26.278928,46.7 -26.278928,46.7l-28.614833,-86.9z" fill="#E0DEDC"/>
   <g stroke="null" id="svg_3">
    <path stroke="#040000" id="svg_4" d="m358.744218,87.2c8.272996,-0.3 15.086051,25.8 12.750147,35.2c-0.875964,3.5 -9.732936,6.3 -13.626111,-3.7c-2.822552,-7.3 -9.440948,-31.2 0.875964,-31.5z" stroke-miterlimit="10" stroke-width="1.3483" fill="#040000"/>
    <path stroke="null" id="svg_5" d="m364.875968,95c1.849258,-0.6 3.893175,4.5 4.57448,6.3c1.751929,5.3 -2.043917,5.1 -4.282492,2c-1.167952,-1.6 -2.141246,-7.6 -0.291988,-8.3z" fill="#FFFFFF"/>
   </g>
   <path stroke="null" id="svg_6" d="m336.942441,488.8c-5.061127,7.3 -40.489015,6.4 -44.868836,-1.3c-4.087833,-7.1 20.828484,-14.9 29.880114,-16.1c13.72344,-1.8 18.589908,12.1 14.988722,17.4z" fill="#B8937F"/>
   <path stroke="null" id="svg_7" d="m40.379872,447c-5.061127,7.3 -28.614833,3.7 -33.091983,-4c-4.087833,-7.1 9.051631,-12.2 18.103262,-13.4c13.72344,-1.8 18.589908,12.1 14.988722,17.4z" fill="#B8937F"/>
   <path stroke="null" id="svg_8" d="m197.469464,14.4c0,0 177.23677,-8.9 156.700274,217.6c-6.13175,68 42.630261,182.8 -28.420174,239.8c0,0 -99.37328,61.7 -232.519848,41.5c-19.465873,-3 -44.28486,-10 -61.512157,-57.1c-21.704448,-59.5 -6.423738,-121.5 12.847476,-165.5c21.704448,-49.7 20.633825,-105.8 19.076555,-115.3c-26.473587,-160.2 133.827874,-161 133.827874,-161z" fill="#8CC5E7"/>
   <path stroke="null" id="svg_9" d="m107.245145,39.8c-18.687238,-5 -31.729372,-10.5 -42.240944,-5c-29.685456,15.7 4.769139,45.4 12.068841,51c10.70623,8.4 43.700884,-42.4 30.172103,-46z" fill="#8CC5E7"/>
   <path stroke="null" id="svg_10" d="m84.178086,41.5c18.29792,4.2 19.076555,13.7 14.404746,16.4c-2.725222,1.6 -0.778635,-8.1 -13.236793,-3.8c-5.061127,1.7 2.433234,14.3 -11.776853,0.2c-7.59169,-7.7 6.618397,-13.7 10.608901,-12.8z" fill="#3C89BF"/>
   <path stroke="null" id="svg_11" d="m247.788745,30.2c22.288424,1.7 74.067645,28.5 48.664681,94.2c-8.856972,23 -101.806514,10.3 -102.974466,-54c-0.389317,-26.8 34.649253,-41.7 54.309785,-40.2z" fill="#E0DEDC"/>
   <path stroke="#040000" id="svg_12" d="m275.040966,52.8c20.828484,1.9 25.889611,32.2 18.103262,39.3c-4.379821,4 -19.563202,8.6 -27.738868,-19c-2.627893,-8.8 1.946587,-21.1 9.635607,-20.3z" stroke-miterlimit="10" stroke-width="1.3483" fill="#040000"/>
   <path stroke="null" id="svg_13" d="m283.021974,58.4c3.01721,-0.9 8.564984,7 6.910385,10.3c-0.583976,1.2 -3.11454,2.9 -5.158456,1.3c-2.238575,-1.8 -7.68902,-9.9 -1.751929,-11.6z" fill="#FFFFFF"/>
   <path stroke="null" id="svg_14" d="m309.398231,131.1c38.639757,-7.8 43.408896,34.9 29.880114,42.2c-9.830266,5.4 -37.763793,-3.5 -42.435602,-13.4c-4.57448,-10 -7.299702,-24.8 12.555488,-28.8z" fill="#B8937F"/>
   <path stroke="null" id="svg_15" d="m335.287842,127.4c12.16617,4.3 11.484865,25.4 4.963798,26c-7.397032,0.7 -20.439166,-14.7 -23.553706,-20.9c-2.335905,-4.6 13.72344,-6.8 18.589908,-5.1z" fill="#040000"/>
   <path stroke="null" id="svg_16" d="m330.908021,170.9c3.11454,1.4 2.822552,18.8 -3.211869,21.5c-19.076555,8.3 -20.341837,-20.4 -16.643321,-24.9c2.822552,-3.6 17.713944,2.4 19.85519,3.4z" fill="#E0DEDC"/>
   <path stroke="null" id="svg_17" d="m117.270069,270.2c10.900889,0.5 19.173884,23.3 16.448662,34.3c-1.45994,5.9 -12.555488,5 -10.998218,9.6c2.627893,7.6 -16.935309,12.9 -20.633825,4.7c-18.784567,-40.8 5.158456,-49 15.183381,-48.6z" fill="#B8937F"/>
   <path stroke="null" id="svg_18" d="m136.9306,498.4c38.639757,-4.3 50.319281,14.7 43.214237,21.8c-7.494361,7.5 -37.082487,5.3 -53.239162,3.9c-6.423738,-0.5 0.291988,-24.6 10.024924,-25.7z" fill="#B8937F"/>
  </g>
 </g>
</svg>
</g>
<g opacity="0.5">
<g transform="translate(990.0,150) scale(0.5,0.5)">
<svg width="397.8" height="535.6" xmlns="http://www.w3.org/2000/svg" xmlns:svg="http://www.w3.org/2000/svg">
 <g>
  <title>Layer 1</title>
  <g stroke="null" id="svg_1">
   <path stroke="#040000" id="svg_2" d="m250.4974,26c22.12677,1.7 73.438,28.8 48.25926,95.3c-8.77441,23.3 -100.90572,10.4 -102.05021,-54.7c-0.47687,-27.1 34.33465,-42.1 53.79095,-40.6z" stroke-miterlimit="10" stroke-width="8.917" fill="none"/>
   <path stroke="#040000" id="svg_3" d="m121.17022,268.7c10.77726,0.5 18.97943,23.6 16.30896,34.6c-1.43061,6 -12.494,5 -10.87264,9.7c2.5751,7.7 -16.78583,13.1 -20.50542,4.8c-18.59794,-41.2 5.1502,-49.5 15.0691,-49.1z" stroke-miterlimit="10" stroke-width="8.917" fill="none"/>
   <path stroke="#040000" id="svg_4" d="m324.31689,472.1c10.30039,1.3 13.82923,12.9 10.58652,17.6c-4.86408,7.1 -38.05424,6.5 -43.96743,-0.7c20.98229,-8.9 32.80867,-16.4 32.80867,-16.4c0.19075,-0.2 0.3815,-0.4 0.57224,-0.5z" stroke-miterlimit="10" stroke-linejoin="round" stroke-linecap="round" stroke-width="8.917" fill="none"/>
   <path stroke="#040000" id="svg_5" d="m122.02858,518.6c-19.17018,-4 -64.75896,4 -88.88859,-61.9c-0.66762,-1.8 -1.23986,-3.6 -1.81211,-5.3c-8.58366,0.3 -19.4563,-3 -22.31752,-8c-3.91034,-6.9 8.01142,-11.9 16.8812,-13.4c-9.72815,-51.5 3.62421,-102.7 19.93317,-140.6c21.55453,-50.2 20.50542,-107 18.97943,-116.5c-6.48543,-40.5 -1.52598,-70.9 9.63278,-93.7c-10.87264,-9.7 -34.04853,-34.5 -8.29754,-48.4c10.39577,-5.6 24.225,0 42.82294,5c1.04911,0.3 0.95374,0.9 1.43061,1.8c38.81723,-27.4 86.98111,-27.6 86.98111,-27.6s79.73269,-8.6 118.07304,56.5l-1.33524,-5.3c0,0 43.6813,-8 54.45857,40.7c7.82067,35.2 -7.43917,44.3 -17.73957,46.6c3.62421,23.1 4.57795,50.1 1.71673,81.6c-6.10394,68.6 40.15247,181.9 -27.56309,242c-11.73101,10.4 -75.6316,37.1 -142.39342,45.2" stroke-miterlimit="10" stroke-linejoin="round" stroke-linecap="round" stroke-width="8.917" fill="none"/>
   <path stroke="#040000" id="svg_6" d="m136.71618,501.5c26.03711,-5.2 47.0194,7.7 44.73042,20c-2.00285,10.7 -39.58022,8.1 -54.64932,6c-6.67618,-1 3.33809,-24.7 9.9189,-26z" stroke-miterlimit="10" stroke-width="8.917" fill="none"/>
   <path stroke="#03324B" id="svg_7" d="m318.7852,128.2" stroke-miterlimit="10" stroke-width="10.2888" fill="none"/>
   <path stroke="#03324B" id="svg_8" d="m307.62644,162.8c0.28612,-1.1 0.66762,-2.1 1.04911,-2.6c2.86122,-3.6 17.83494,2.5 19.93317,3.5c0.85837,0.4 1.43061,1.9 1.71673,4" stroke-miterlimit="10" stroke-width="5.4874" fill="none"/>
   <path stroke="null" id="svg_9" d="m85.11883,37.4c18.31181,4.3 19.17018,14 14.40148,16.7c-2.76585,1.6 -0.76299,-8.3 -13.25699,-3.9c-5.05482,1.7 2.38435,14.6 -11.82638,0.2c-7.53455,-7.7 6.67618,-13.9 10.68189,-13z" fill="#040000"/>
   <path stroke="#040000" id="svg_10" d="m249.16216,25.9c22.4129,1.7 74.29637,29.1 48.8315,96.4c-8.86978,23.5 -102.05021,10.5 -103.1947,-55.3c-0.47687,-27.4 34.71615,-42.7 54.3632,-41.1z" stroke-miterlimit="10" stroke-width="8.231" fill="none"/>
   <path stroke="#040000" id="svg_11" d="m307.05419,123c2.09823,-0.4 4.19646,-0.7 6.10394,-0.9c0.57224,0 1.14449,0.5 1.04911,1.1c-0.09537,0.4 0,0.8 0.19075,1.2c3.14734,6.4 16.78583,22.9 24.12963,21.3c0.28612,-0.1 0.57224,-0.2 0.76299,-0.4c1.90748,-1.1 4.29183,0.1 4.48258,2.3c0.76299,8.1 -1.81211,15.7 -6.77156,18.5c-1.71673,1 -4.00571,1.5 -6.67618,1.6c-0.28612,-2.1 -0.85837,-3.6 -1.71673,-4c-2.1936,-1 -17.07195,-7.2 -19.93317,-3.5c-0.47687,0.6 -0.76299,1.5 -1.04911,2.6c-6.19931,-2.8 -11.34951,-6.5 -13.06624,-10.4c-4.67333,-10.2 -7.3438,-25.4 12.494,-29.4z" stroke-miterlimit="10" stroke-width="8.231" fill="none"/>
   <path stroke="#040000" id="svg_12" d="m330.32546,167.8c0.85837,5.8 -0.47687,16 -4.95945,17.9c-16.78583,7.5 -19.8378,-14.4 -17.83494,-22.9" stroke-miterlimit="10" stroke-width="8.231" fill="none"/>
   <path stroke="null" id="svg_13" d="m353.69209,84.2c3.43346,-0.1 6.67618,4.5 9.06053,10.6c-0.85837,-1.6 -1.90748,-2.9 -2.86122,-2.5c-1.90748,0.7 -0.95374,6.8 0.28612,8.5c1.71673,2.5 4.48258,3.1 4.67333,0.5c1.90748,7.1 2.67047,14.7 1.62136,18.9c-0.85837,3.6 -9.72815,6.4 -13.63849,-3.7c-2.76585,-7.5 -9.34665,-32 0.85837,-32.3z" fill="#040000"/>
   <path stroke="null" id="svg_14" d="m274.53165,49c20.88691,2 25.94174,33 18.21644,40.2c-4.38721,4.1 -19.64705,8.8 -27.84922,-19.4c-2.5751,-9 1.90748,-21.6 9.63278,-20.8zm9.82352,17.6c2.00285,1.6 4.57795,-0.1 5.1502,-1.3c1.62136,-3.4 -4.00571,-11.4 -6.9623,-10.6c-5.91319,1.8 -0.3815,10 1.81211,11.9z" fill="#040000"/>
   <path stroke="null" id="svg_15" d="m334.04504,117.3c14.97372,5.4 14.21073,31.9 6.10394,32.7c-9.15591,0.9 -25.17874,-18.5 -28.9937,-26.2c-2.95659,-5.9 16.8812,-8.6 22.88977,-6.5z" fill="#040000"/>
  </g>
 </g>
</svg>
</g>
<text y="350" x="1055.0" font-size="170" font-family="monospace">?</text>
</g>
<g transform="translate(332,42) scale(0.7,0.7)">
<svg
   xmlns:dc="http://purl.org/dc/elements/1.1/"
   xmlns:cc="http://creativecommons.org/ns#"
   xmlns:rdf="http://www.w3.org/1999/02/22-rdf-syntax-ns#"
   xmlns:svg="http://www.w3.org/2000/svg"
   xmlns="http://www.w3.org/2000/svg"
   version="1.1"
   width="306"
   height="185"
   id="图层_1">
  <g
     transform="translate(-92,-63.999774)"
     id="layer3"
     style="display:inline">
    <g
       id="layer5">
      <path
         d="m 264.513,77.977773 -4.917,19.529001 c 6.965,-13.793001 18.027,-24.172001 30.729,-33.323001 -9.287,10.789 -17.754,21.579001 -22.944,32.368001 8.741,-12.292001 20.486,-19.120001 33.733,-23.627001 -17.618,15.706001 -31.60228,32.559277 -42.25528,49.494277 l -8.467,-3.687 c 1.501,-13.521 6.60928,-27.369276 14.12128,-40.754277 z"
         id="path2554"
         style="fill:#abcd03" />
      <path
         d="m 241.90113,115.14152 16.116,6.68594 c 0,4.098 -0.33313,16.59703 2.22938,20.28403 26.80289,34.5191 22.29349,103.71329 -5.42951,105.48829 -42.21656,0 -58.317,-28.679 -58.317,-55.03801 0,-24.037 28.816,-40.016 46.025,-54.219 4.37,-3.824 3.61113,-12.27525 -0.62387,-23.20125 z"
         id="path2534"
         style="fill:#fffcdb" />
      <path
         d="m 258.02197,121.58695 5.80803,2.96282 c -0.546,3.823 0.273,12.292 4.096,14.476 16.936,10.516 32.914,21.988 39.197,33.46 22.398,40.42601 -15.706,77.84601 -48.62,74.29501 17.891,-13.248 23.081,-40.42501 16.389,-70.06201 -2.731,-11.609 -6.966,-22.125 -14.478,-34.007 -3.25421,-5.83246 -2.11803,-13.06582 -2.39203,-21.12482 z"
         id="path2536"
         style="fill:#7d4698" />
    </g>
    <g
       id="layer4"
       style="display:inline">
      <path
         d="m 255.226,120.58877 12.018,1.639 c -3.551,11.745 6.966,19.939 10.38,21.852 7.64801,4.234 15.02301,8.604 20.89601,13.93 11.063,10.106 17.345,24.31 17.345,39.333 0,14.886 -6.829,29.226 -18.301,38.786 -10.789,9.014 -25.67501,12.838 -40.15201,12.838 -9.014,0 -17.072,-0.409 -25.812,-3.278 -19.939,-6.692 -34.826,-23.763 -36.055,-44.25 -1.093,-15.979 2.458,-28.134 14.887,-40.835 6.418,-6.692 19.393,-14.34 28.271,-20.486 4.371,-3.005 9.014,-11.473 0.136,-27.451 l 1.776,-1.366 13.15659,8.81203 -11.10759,-4.57803 c 0.956,1.366 3.551,7.512 4.098,9.287 1.229,5.053 0.683,9.971 -0.41,12.155 -5.599,10.107 -15.159,12.838 -22.124,18.574 -12.292,10.106 -25.676,18.164 -24.174,45.888 0.683,13.657 11.336,30.319 27.314,38.104 9.014,4.371 19.394,6.146 29.91,6.692 9.423,0.41 27.45101,-5.19 37.28401,-13.384 10.516,-8.74 16.389,-21.988 16.389,-35.508 0,-13.658 -5.463,-26.632 -15.706,-35.783 -5.873,-5.326 -15.56901,-11.745 -21.57801,-15.16 -6.009,-3.414 -13.521,-12.974 -11.063,-22.124 z"
         id="path2538" />
      <path
         d="m 251.539,140.80177 c -1.229,6.283 -2.595,17.618 -8.058,21.852 -2.322,1.638 -4.644,3.278 -7.102,4.916 -9.833,6.693 -19.667,12.974 -24.173,29.09 -0.956,3.415 -0.136,7.102 0.684,10.516 2.458,9.833 9.423,20.486 14.886,26.769 0,0.273 1.093,0.956 1.093,1.229 4.507,5.327 5.873,6.829 22.944,10.652 l -0.41,1.913 c -10.243,-2.731 -18.71,-5.189 -24.037,-11.336 0,-0.136 -0.956,-1.093 -0.956,-1.093 -5.736,-6.556 -12.702,-17.481 -15.296,-27.724 -0.956,-4.098 -1.775,-7.238 -0.683,-11.473 4.643,-16.661 14.75,-23.217 24.993,-30.182 2.322,-1.502 5.053,-2.869 7.238,-4.644 4.233,-3.14 6.554,-12.701 8.877,-20.485 z"
         id="path2540" />
      <path
         d="m 255.90625,166.74951 c 0.137,7.102 -0.55625,10.66475 1.21875,15.71875 1.092,3.004 4.782,7.1015 5.875,11.0625 1.502,5.327 3.138,11.19901 3,14.75001 0,4.09799 -0.25625,11.74249 -2.03125,19.93749 -1.35362,6.77108 -4.47323,12.58153 -9.71875,15.875 -5.37327,-1.10644 -11.68224,-2.99521 -15.40625,-6.1875 -7.238,-6.282 -13.64875,-16.7865 -14.46875,-25.9375 -0.682,-7.51099 6.27275,-18.5885 15.96875,-24.1875 8.194,-4.78 10.1,-10.22775 11.875,-18.96875 -2.458,7.648 -4.7665,14.05925 -12.6875,18.15625 -11.472,6.009 -17.3585,16.09626 -16.8125,25.65625 0.819,12.291 5.7415,20.6195 15.4375,27.3125 4.097,2.868 11.75125,5.89875 16.53125,6.71875 l 0,-0.625 c 3.62493,-0.67888 8.31818,-6.63267 10.65625,-14.6875 2.049,-7.238 2.85675,-16.502 2.71875,-22.37499 -0.137,-3.414 -1.643,-10.80801 -4.375,-17.50001 -1.502,-3.687 -3.8095,-7.37375 -5.3125,-9.96875 -1.637,-2.597 -1.64875,-8.195 -2.46875,-14.75 z"
         id="path2542" />
      <path
         d="m 255.09375,193.53076 c 0.136,4.78 2.056,10.90451 2.875,17.18751 0.684,4.64399 0.387,9.30824 0.25,13.40624 -0.13495,4.74323 -1.7152,13.24218 -3.875,17.375 -2.03673,-0.93403 -2.83294,-1.99922 -4.15625,-3.71875 -1.638,-2.322 -2.75075,-4.644 -3.84375,-7.375 -0.819,-2.049 -1.7765,-4.394 -2.1875,-7.125 -0.546,-4.097 -0.393,-10.5065 4.25,-17.06249 3.551,-5.19001 4.36475,-5.58476 5.59375,-11.59376 -1.64,5.326 -2.8625,5.869 -6.6875,10.37501 -4.233,4.917 -4.9375,12.15924 -4.9375,18.03124 0,2.459 0.9805,5.18725 1.9375,7.78125 1.092,2.732 2.02925,5.452 3.53125,7.5 2.25796,3.32082 5.14798,5.20922 6.5625,5.5625 0.009,0.002 0.022,-0.002 0.0312,0 0.0303,0.007 0.0649,0.0255 0.0937,0.0312 l 0,-0.15625 c 2.64982,-2.95437 4.24444,-5.88934 4.78125,-8.84375 0.683,-3.551 0.84,-7.10975 1.25,-11.34375 0.409,-3.551 0.11225,-8.334 -0.84375,-13.24999 -1.365,-6.146 -3.669,-12.41226 -4.625,-16.78126 z"
         id="path2544" />
      <path
         d="m 255.499,135.06577 c 0.137,7.101 0.683,20.35 2.595,25.539 0.546,1.775 5.599,9.56 9.149,18.983 2.459,6.556 3.005,12.565 3.415,14.34 1.639,7.785 -0.41,20.896 -3.142,33.324 -1.365,6.692 -6.009,15.023 -11.335,18.301 l -1.092,1.912 c 3.005,-0.137 10.379,-7.375 12.974,-16.389 4.371,-15.296 6.146,-22.398 4.098,-39.333 -0.273,-1.64 -0.956,-7.238 -3.551,-13.248 -3.824,-9.151 -9.287,-17.891 -9.969,-19.667 -1.23,-2.867 -2.869,-15.295 -3.142,-23.762 z"
         id="path2550" />
      <path
         d="m 258.06151,125.35303 c -0.40515,7.29812 -0.51351,9.98574 0.85149,15.31174 1.502,5.873 9.151,14.34 12.292,24.037 6.009,18.574 4.507,42.884 0.136,61.867 -1.638,6.691 -9.424,16.389 -17.208,19.529 l 5.736,1.366 c 3.141,-0.137 11.198,-7.648 14.34,-16.252 5.052,-13.521 6.009,-29.636 3.96,-46.571 -0.137,-1.639 -2.869,-16.252 -5.463,-22.398 -3.688,-9.15 -10.244,-17.345 -10.926,-19.119 -1.228,-3.005 -3.92651,-9.24362 -3.71849,-17.77074 z"
         id="path2552" />
      <rect
         width="0.550412"
         height="126.01891"
         x="253.71959"
         y="120.21686"
         id="rect2556" />
    </g>
  </g>
  <path
     d="M 7.9430002,18.074997 H 117.611 c 4.096,0 7.647,3.414 7.647,7.648 v 32.367 c 0,4.234 -3.551,7.649 -7.647,7.649 H 95.077 c -5.054,0 -7.239,2.867 -7.239,6.145 V 177.86401 c 0,3.551 -2.868,6.282 -6.282,6.282 H 44.272 c -3.415,0 -6.146,-2.731 -6.146,-6.282 V 70.928997 c 0,-3.278 -3.005,-5.189 -5.326,-5.189 H 7.9430002 c -4.234,0 -7.64799997,-3.415 -7.64799997,-7.649 v -32.368 c -0.001,-4.234 3.41299997,-7.648 7.64799997,-7.648 z"
     id="path2528"
     style="fill:#7d4698" />
  <path
     d="m 289.30687,60.958997 9.696,0 c 3.551,0 6.419,2.868 6.419,6.282 l 0,34.690003 c 0,4.507 0.273,6.282 -5.19,6.282 -10.789,0 -15.705,5.736 -15.705,12.018 l 0,58.58901 c 0,2.732 -2.595,5.053 -5.736,5.053 l -34.827,0 c -3.141,0 -5.736,-2.321 -5.736,-5.053 l 0,-66.78401 c -0.0378,-1.17441 -0.0148,-2.9081 0.137,-3.823 1.912,-24.720003 21.30753,-44.497863 45.888,-46.981003 0.82399,-0.0832 3.73943,-0.273 5.054,-0.273 z"
     id="path2532"
     style="fill:#7d4698" />
</svg>

</g>
</svg>
